<svg xmlns="http://www.w3.org/2000/svg" width="24" height="24" viewBox="0 0 24 24"><g><g><path fill="#2b2d31" d="M9.358 9.94a.443.443 0 0 1-.021-.134v-7.09c0-.048.007-.095.02-.14l.016-.043c.014-.028.024-.057.04-.086l.03-.041a.682.682 0 0 1 .058-.066l.045-.036.028-.026.045-.021.028-.018L14.604.045a.522.522 0 0 1 .423 0l4.957 2.194.028.018a.395.395 0 0 1 .047.023l.029.024.042.036c.02.02.04.043.057.066l.031.044a.487.487 0 0 1 .04.083.432.432 0 0 1 .036.183v7.088c0 .045-.007.09-.018.133v.034a.566.566 0 0 1-.05.107.618.618 0 0 1-.086.099l-.026.018a.48.48 0 0 1-.104.068l-4.957 2.191a.659.659 0 0 1-.094.031.707.707 0 0 1-.107 0 .673.673 0 0 1-.104 0h-.013a.583.583 0 0 1-.09-.028L9.69 10.265a.55.55 0 0 1-.104-.067l-.026-.019a.784.784 0 0 1-.086-.099.58.58 0 0 1-.053-.107zm1.077-.473L14.35 11.2V5.272l-3.914-1.75zm8.87-5.963l-3.913 1.714v5.981l3.913-1.732zm-8.108-.785l3.621 1.622 3.705-1.628-3.653-1.62zM0 22.435v-6.783c0-.864.7-1.565 1.565-1.565h3.653c.44.004.859.193 1.153.522.845-.522 2.799-1.469 4.805-.522.52.261.916.464 1.229.634 1.085.584 1.31.697 3.509.436a.522.522 0 0 1 .211.015c.474.14.87.47 1.093.91.07.157.115.323.13.494l4.305-2.228a1.61 1.61 0 0 1 1.795.17c.267.225.45.532.522.873a1.646 1.646 0 0 1-.751 1.714l-6.783 4.127c-.85.52-1.827.798-2.823.801h-6.83v.402c0 .864-.7 1.565-1.565 1.565H1.565C.701 24 0 23.3 0 22.435zm6.783-6.858v5.42h6.83a4.394 4.394 0 0 0 2.283-.65l6.8-4.134a.592.592 0 0 0 .262-.605.522.522 0 0 0-.186-.297.564.564 0 0 0-.641-.047l-5.192 2.705c-.522.41-1.78 1.192-4.174 1.192a.522.522 0 1 1 0-1.044c2.027 0 3.065-.61 3.449-.907a.89.89 0 0 0 .052-.686.715.715 0 0 0-.35-.316c-2.316.276-2.755.104-4.004-.569-.321-.172-.686-.37-1.182-.605-1.672-.793-3.386.17-3.947.543zm-5.74 6.858c0 .288.234.522.522.522h3.653a.522.522 0 0 0 .521-.522v-6.783a.522.522 0 0 0-.521-.521H1.565a.522.522 0 0 0-.521.521z"/></g></g></svg>