<svg id="Capa_1" enable-background="new 0 0 512 512" height="512" viewBox="0 0 512 512" width="512" xmlns="http://www.w3.org/2000/svg"><path d="m378.716 460.241c-120.261 120.262-320.226-6.731-320.226-6.731s-126.993-199.965-6.731-320.226 397.121-160.397 442.238-115.28 4.981 321.976-115.281 442.237z" fill="#00DA5F"/><path d="m110.035 191.56c99.372-99.372 305.658-144.033 399.78-131.098-2.719-19.786-7.981-34.621-15.818-42.458-45.117-45.117-321.977-4.982-442.238 115.28s6.731 320.226 6.731 320.226 14.481 9.194 37.985 20.291c-30.147-63.853-74.345-194.336 13.56-282.241z" fill="#00DA5F"/><path d="m368.135 143.865c-6.034-6.035-15.819-6.035-21.853 0l-73.347 73.347-7.423-38.406c-1.62-8.38-9.729-13.855-18.105-12.24-8.379 1.62-13.859 9.725-12.239 18.104l11.388 58.921-73.42 73.42-12.964-67.081c-1.62-8.38-9.723-13.856-18.105-12.24-8.379 1.619-13.859 9.725-12.239 18.104l16.929 87.596-112.356 112.356c-6.035 6.035-6.035 15.818 0 21.853 3.017 3.018 6.972 4.526 10.927 4.526s7.909-1.509 10.927-4.526l112.354-112.354 87.595 16.929c.991.192 1.977.284 2.95.284 7.255 0 13.727-5.135 15.155-12.524 1.62-8.379-3.86-16.484-12.239-18.104l-67.081-12.965 73.421-73.421 58.92 11.388c.991.191 1.977.284 2.95.284 7.255 0 13.727-5.135 15.155-12.524 1.62-8.379-3.86-16.484-12.239-18.104l-38.406-7.423 73.347-73.347c6.033-6.034 6.033-15.818-.002-21.853z" fill="#00DA5F"/></svg>