<svg xmlns="http://www.w3.org/2000/svg" width="16" height="16" viewBox="0 0 16 16"><g><g><path fill="#2b2d31" d="M11.308 3.728a.958.958 0 1 1 1.916 0 .958.958 0 0 1-1.916 0zM12.105 8a4.114 4.114 0 0 1-4.111 4.111A4.114 4.114 0 0 1 3.882 8a4.114 4.114 0 0 1 4.112-4.111A4.114 4.114 0 0 1 12.105 8zm-1.44 0a2.672 2.672 0 1 0-2.67 2.67c1.47 0 2.67-1.199 2.67-2.67zm5.286-3.301c.043.853.05 1.125.05 3.301s-.013 2.448-.05 3.302c-.037.847-.173 1.434-.371 1.94a3.91 3.91 0 0 1-.921 1.417 3.91 3.91 0 0 1-1.416.92c-.507.199-1.088.335-1.941.372-.854.043-1.126.05-3.302.05s-2.448-.013-3.301-.05c-.847-.037-1.435-.173-1.942-.371a3.91 3.91 0 0 1-1.416-.921 3.91 3.91 0 0 1-.92-1.416c-.199-.507-.335-1.088-.372-1.941C.006 10.448 0 10.176 0 8s.013-2.448.05-3.301c.037-.847.173-1.435.371-1.942a3.91 3.91 0 0 1 .921-1.416 3.91 3.91 0 0 1 1.416-.92C3.264.221 3.845.085 4.7.048 5.552.006 5.824 0 8 0s2.448.013 3.302.05c.847.037 1.434.173 1.94.371.526.204.972.476 1.417.921.445.446.717.89.92 1.416.199.507.335 1.088.372 1.942zM14.56 8c0-2.133-.013-2.386-.05-3.233-.037-.78-.167-1.2-.278-1.484a2.505 2.505 0 0 0-.6-.921 2.478 2.478 0 0 0-.92-.6c-.28-.111-.706-.241-1.485-.278-.84-.044-1.1-.05-3.233-.05s-2.387.013-3.234.05c-.779.037-1.199.167-1.483.278a2.505 2.505 0 0 0-.922.6c-.278.278-.457.55-.6.92-.11.279-.24.706-.278 1.485-.043.84-.049 1.1-.049 3.233s.012 2.387.05 3.234c.037.779.166 1.199.278 1.483.148.377.321.643.6.922.278.278.55.457.92.6.279.11.705.24 1.484.277.841.044 1.095.05 3.234.05 2.139 0 2.386-.012 3.233-.05.78-.037 1.2-.166 1.484-.278.377-.148.643-.321.921-.6.279-.278.458-.55.6-.92.111-.279.241-.705.278-1.484.037-.841.05-1.101.05-3.234z"/></g></g></svg>