<svg xmlns="http://www.w3.org/2000/svg" width="17" height="24" viewBox="0 0 17 24"><g><g><path fill="#2b2d31" d="M5.203 11.09A.496.496 0 0 1 5.07 11a.464.464 0 0 1-.088-.098.88.88 0 0 1-.052-.112v-.032a.477.477 0 0 1-.02-.135V6.595a.5.5 0 0 1 .02-.141l.016-.042a.439.439 0 0 1 .07-.128.485.485 0 0 1 .06-.067l.041-.034.029-.026.046-.024.029-.018L8.077 4.87a.501.501 0 0 1 .415 0l2.856 1.245.028.018.05.026.028.024.042.034a.715.715 0 0 1 .085.11c.017.026.03.055.042.085l.016.042a.5.5 0 0 1 .02.14v4.042a.477.477 0 0 1-.02.135v.032a.88.88 0 0 1-.052.112.464.464 0 0 1-.115.12.496.496 0 0 1-.106.068L8.51 12.347a.517.517 0 0 1-.41 0zm.768-.81l1.817.783v-2.87L5.971 7.39zm4.673-2.892l-1.817.782v2.893l1.817-.782zm-3.894-.79l1.54.675 1.575-.68-1.557-.676zM4.323 18.098C2.123 15.104 0 10.912 0 8.348 0 3.738 3.72 0 8.308 0c4.588 0 8.307 3.737 8.307 8.348 0 2.846-2.375 6.754-3.403 8.3-.11.165-.49.736-1.01 1.435 2.78.517 4.413 1.532 4.413 2.787 0 2.055-4.18 3.13-8.307 3.13C4.18 24 0 22.925 0 20.87c0-1.237 1.602-2.25 4.323-2.77zM8.308 1.043c-4.015 0-7.27 3.27-7.27 7.305 0 4.213 5.91 12.26 7.27 12.26 1.137-.106 7.269-8.024 7.269-12.26 0-4.034-3.255-7.305-7.27-7.305zM1.038 20.87c0 .85 2.833 2.087 7.27 2.087 4.437 0 7.269-1.237 7.269-2.087 0-.522-1.275-1.417-4.089-1.85-1.046 1.297-2.329 2.632-3.18 2.632-.78 0-1.997-1.043-3.266-2.609-2.602.405-4.004 1.234-4.004 1.827zm11.676-7.834a6.216 6.216 0 0 1-4.406 1.834c-3.441 0-6.231-2.804-6.231-6.261 0-3.458 2.79-6.261 6.23-6.261 3.442 0 6.231 2.803 6.231 6.26 0 1.661-.656 3.254-1.824 4.428zM3.115 8.609a5.23 5.23 0 0 0 1.521 3.689 5.18 5.18 0 0 0 3.672 1.528c2.867 0 5.192-2.336 5.192-5.217 0-2.882-2.325-5.218-5.192-5.218-2.868 0-5.193 2.336-5.193 5.218z"/></g></g></svg>