<svg xmlns="http://www.w3.org/2000/svg" width="24" height="17" viewBox="0 0 24 17"><g><g><path fill="#2b2d31" d="M4.244 9.43a.517.517 0 0 1-.462-.763L5.218 5.97a.522.522 0 0 1 .47-.288h2.862a.536.536 0 0 1 .396.164.518.518 0 0 1 .133.456c-.02.26-.015 1.49 0 2.597a.523.523 0 0 1-.522.527H4.253zm.874-1.042h2.904V6.73H6zm16.795-3.736a.52.52 0 0 1-.522.52h-3.156a.52.52 0 0 1-.522-.52.52.52 0 0 1 .522-.519h3.156a.52.52 0 0 1 .522.52zm-2.635 3.635h3.157a.52.52 0 0 1 .522.52.52.52 0 0 1-.522.518h-3.157a.52.52 0 0 1-.521-.519.52.52 0 0 1 .521-.52zm4.2 5.192A.52.52 0 0 1 24 14a.52.52 0 0 1-.522.519h-2.69a2.511 2.511 0 0 1-2.478 2.077 2.511 2.511 0 0 1-2.478-2.077h-7.09a2.56 2.56 0 0 1-2.481 2.097 2.56 2.56 0 0 1-2.481-2.097H.522a.52.52 0 0 1-.522-.52v-5.09a.52.52 0 0 1 .308-.476l1.85-.828 1.925-3.45a.522.522 0 0 1 .456-.26h5.478V.52A.52.52 0 0 1 10.54 0h9.287a.52.52 0 0 1 .522.52.52.52 0 0 1-.522.518h-8.765V13.48h4.776a2.511 2.511 0 0 1 2.479-2.077c1.224 0 2.27.877 2.478 2.077zm-22.435 0H3.78a2.558 2.558 0 0 1 2.48-2.095 2.558 2.558 0 0 1 2.482 2.095h1.275V4.933h-5.17L2.987 8.26a.54.54 0 0 1-.243.22l-1.7.761zm5.218 2.098A1.584 1.584 0 0 0 7.738 14c0-.83-.645-1.52-1.477-1.577A1.584 1.584 0 0 0 4.784 14c0 .83.645 1.519 1.477 1.577zM19.8 13.998c0-.648-.399-1.23-1.005-1.47a1.594 1.594 0 0 0-1.743.39 1.575 1.575 0 0 0-.277 1.756 1.59 1.59 0 0 0 1.538.903 1.537 1.537 0 0 0 1.487-1.579z"/></g></g></svg>