<svg xmlns="http://www.w3.org/2000/svg" width="16" height="13" viewBox="0 0 16 13"><g><g><path fill="#2b2d31" d="M16 1.54a6.531 6.531 0 0 1-1.885.516A3.288 3.288 0 0 0 15.558.24a6.57 6.57 0 0 1-2.085.797A3.283 3.283 0 0 0 7.88 4.03 9.32 9.32 0 0 1 1.114.6 3.28 3.28 0 0 0 2.13 4.984a3.273 3.273 0 0 1-1.487-.411v.041a3.285 3.285 0 0 0 2.633 3.219 3.3 3.3 0 0 1-1.483.056 3.286 3.286 0 0 0 3.067 2.28A6.585 6.585 0 0 1 0 11.527a9.29 9.29 0 0 0 5.032 1.475c6.038 0 9.34-5.002 9.34-9.34 0-.142-.003-.284-.01-.425A6.648 6.648 0 0 0 16 1.539z"/></g></g></svg>