<svg xmlns="http://www.w3.org/2000/svg" width="16" height="9" viewBox="0 0 16 9"><g><g><path fill="#2b2d31" d="M15.372.387h-2.596a.589.589 0 0 0-.517.3s-1.035 1.848-1.368 2.47c-.895 1.675-1.474 1.15-1.474.372V.85a.858.858 0 0 0-.871-.845H6.593a1.583 1.583 0 0 0-1.381.622s.991-.156.991 1.139c0 .321.017 1.245.033 2.02a.558.558 0 0 1-.364.532.588.588 0 0 1-.64-.147A16.33 16.33 0 0 1 3.26.695a.548.548 0 0 0-.497-.308H.403a.405.405 0 0 0-.33.165.379.379 0 0 0-.048.358C.741 2.815 3.827 8.8 7.35 8.8H8.83a.577.577 0 0 0 .586-.568v-.867c0-.223.136-.424.347-.512a.59.59 0 0 1 .622.105l1.775 1.616c.159.145.37.226.588.226h2.33c1.124 0 1.124-.756.511-1.34-.431-.412-1.987-2.002-1.987-2.002a.761.761 0 0 1-.062-1.012 739.44 739.44 0 0 0 1.675-2.142c.476-.615 1.34-1.917.156-1.917z"/></g></g></svg>