<svg xmlns="http://www.w3.org/2000/svg" width="16" height="12" viewBox="0 0 16 12"><g><g><path fill="#2b2d31" d="M6.348 7.692V3.207l4.323 2.25zm9.492-5.264s-.156-1.103-.636-1.589c-.608-.637-1.29-.64-1.603-.677C11.362 0 8.004 0 8.004 0h-.008S4.638 0 2.4.162c-.313.037-.995.04-1.603.677C.316 1.325.16 2.428.16 2.428S0 3.722 0 5.018V6.23c0 1.295.16 2.59.16 2.59s.156 1.102.636 1.588c.608.637 1.408.617 1.764.684 1.28.122 5.44.16 5.44.16s3.362-.005 5.601-.166c.313-.038.995-.04 1.603-.678.48-.486.636-1.588.636-1.588S16 7.526 16 6.23V5.017c0-1.295-.16-2.59-.16-2.59z"/></g></g></svg>