<?xml version="1.0" encoding="utf-8"?>
<!-- Generator: Adobe Illustrator 22.1.0, SVG Export Plug-In . SVG Version: 6.00 Build 0)  -->
<svg version="1.1" id="Layer_1" xmlns="http://www.w3.org/2000/svg" xmlns:xlink="http://www.w3.org/1999/xlink" x="0px" y="0px"
	 viewBox="0 0 1008 671" style="enable-background:new 0 0 1008 671;" xml:space="preserve">
<rect x="458" y="471" width="542" height="6"/>
<g>
	<path d="M528,239.8c8.2-6.3,12.3-15.4,12.3-27.3c0-7.6-1.8-13.8-5.6-18.7c-3.9-4.8-9.6-8.1-15.6-9.9v-0.3
		c11-5.4,17.4-14.7,17.4-27.9c0-9.5-3.4-16.9-10.1-22.3c-6.7-5.4-16.6-8.1-30.1-8.1c-11,0-23.2,0.3-35.2,0.9v122.1
		c8,0.6,19.9,0.9,33.9,0.9C509,249.3,519.8,246.1,528,239.8z M482,146.1c4-0.3,8.4-0.5,13.5-0.5c6.1,0,10.8,1.3,14.2,3.9
		c3.4,2.6,5.1,6.4,5.1,11.3c0,5.3-1.7,9.2-5,12c-3.3,2.8-7.7,4.2-13.2,4.2H482V146.1z M482,196h15.3c6.8,0,12,1.2,15.8,3.9
		c3.7,2.6,5.6,6.5,5.6,11.6c0,11.8-7.5,17.7-22.5,17.7c-4,0-8.2-0.3-14.2-0.9V196z"/>
	<path d="M604.7,126l-51.9,123h21.7l12.8-32h52.4l12.8,32h22.9l-51.9-123H604.7z M595.6,197l18-43.6l17.9,43.6H595.6z"/>
	<path d="M745.8,230.4c-12.5,0-22.7-4-30.7-11.9c-7.8-7.9-11.7-18.3-11.7-31.2c0-13.1,3.7-23.5,11.2-31.4
		c7.5-7.8,17.1-11.7,28.7-11.7c10.2,0,19.4,2.7,27.7,8.2l9.6-15.9c-9.2-8.3-21.7-12.4-37.3-12.4c-19.7,0-35.1,6-46.1,17.9
		c-11.1,12-16.6,27.2-16.6,45.4c0,19,5.8,34.3,17.5,45.9c11.8,11.6,27,17.3,45.7,17.3c7.9,0,15.5-1.3,22.7-3.9
		c7.2-2.6,12.7-5.9,16.6-10l-8.2-16.1C766.2,227.1,756.5,230.4,745.8,230.4z"/>
	<polygon points="900.3,126 874.4,126 826,184.1 826,126 804,126 804,249 826,249 826,185.3 876.1,249 903.4,249 849.8,183.3 	"/>
	<path d="M485,395.2c4,0.4,9.7,0.5,17.7,0.5c15.8,0,28-3.9,36.8-11.6c8.9-7.7,13.3-17.1,13.3-28.2c0-5.4-0.9-10.3-2.8-14.8
		c-1.8-4.5-4.7-8.6-8.6-12.4s-9.5-6.8-16.6-8.9c-7.1-2.2-15.5-3.2-25.2-3.2c-6.8,0-13.4,0.1-20.2,0.2c-6.7,0.1-13.4,0.2-18.4,0.2
		V440h24V395.2z M485,337l17.1-0.3c16.9,0,25.2,6.4,25.2,19.1c0,6.4-2.4,11.3-7,14.7c-4.6,3.4-10.7,5.1-18.4,5.1
		c-4.4,0-9.9-0.3-16.9-0.9V337z"/>
	<path d="M745.8,421.3c-12.5,0-22.7-4-30.7-11.9c-7.8-7.9-11.7-18.3-11.7-31.2c0-13.1,3.7-23.5,11.2-31.4
		c7.5-7.8,17.1-11.7,28.7-11.7c10.2,0,19.4,2.7,27.7,8.2l9.6-15.9c-9.2-8.3-21.7-12.4-37.3-12.4c-19.7,0-35.1,6-46.1,17.9
		c-11.1,12-16.6,27.2-16.6,45.4c0,19,5.8,34.3,17.5,45.9c11.8,11.6,27,17.3,45.7,17.3c7.9,0,15.5-1.3,22.7-3.9
		c7.2-2.6,12.7-5.9,16.6-10l-8.2-16.1C766.2,418,756.5,421.3,745.8,421.3z"/>
	<polygon points="900.3,317 874.4,317 826,375.1 826,317 804,317 804,440 826,440 826,376.3 876.1,440 903.4,440 849.8,374.3 	"/>
	<path d="M987.2,390.3c-2.6-4.8-6.1-8.5-10.4-11c-3.9-2.6-8.4-5-13.5-7.4c-1.3-0.6-3.5-1.6-6.7-3s-5.4-2.4-6.7-3.1
		c-1.3-0.6-3.2-1.7-5.4-3.1c-2.3-1.4-3.9-2.7-4.9-3.9c-1-1.2-1.9-2.7-2.7-4.5c-0.8-1.8-1.2-3.8-1.2-5.9c0-4.1,1.5-7.4,4.6-9.8
		c3.1-2.5,7.3-3.7,12.5-3.7c8.3,0,15.5,3,21.7,9.1l11.6-16.1c-7.8-8.8-19.5-13.1-35-13.1c-11.4,0-20.7,3.3-27.9,9.8
		c-6.9,6.5-10.3,14.5-10.3,24c0,6.2,1.4,11.7,4.1,16.4c2.7,4.7,6.2,8.4,10.2,11c4.1,2.6,8.6,5.1,13.4,7.5c4.8,2.4,9.3,4.5,13.4,6.3
		c4.1,1.8,7.5,4.1,10.2,7c2.7,2.9,4.1,6.2,4.1,9.9c0,4.4-1.6,7.9-4.9,10.5c-3.3,2.6-7.6,3.9-13,3.9c-5.1,0-10.3-1.2-15.5-3.7
		c-5.2-2.5-9.4-5.8-12.7-10.2l-12.3,14.7c2.8,6,8.1,10.7,15.8,14.2c8.1,3.4,16.2,5.1,24.4,5.1c11.7,0,21.4-3.2,29.3-9.6
		c7.8-6.4,11.7-14.8,11.7-25.1C991.2,400.6,989.9,395.1,987.2,390.3z"/>
	<path d="M535.2,568.5c4.8-6.1,7.2-13.8,7.2-23.1c0-25.2-14.8-37.8-44.5-37.8c-4.6,0-10.2,0.1-17.3,0.2c-7.1,0.1-13.6,0.2-19.6,0.2
		V630h21v-45h15.2l33.8,45h26.1l-38.4-49.9C524.9,578,530.4,574.3,535.2,568.5z M513,559.1c-4.4,3.4-10,4.9-16.9,4.9H482v-36
		c2,0,4.2,0,6.5-0.1c2.3-0.1,4.2-0.1,5.5-0.2c1.3-0.1,2.2-0.1,2.8-0.1c15.2,0,22.8,5.9,22.8,17.8C519.6,551.2,517.4,555.7,513,559.1
		z"/>
	<path d="M604.7,317l-51.9,123h21.7l12.8-32h52.4l12.8,32h22.9l-51.9-123H604.7z M595.6,388l18-43.6l17.9,43.6H595.6z"/>
	<path d="M643,575.3c0,24.6-9,37-27.2,37c-10,0-17.7-3.4-22.9-10.1c-5.2-6.7-7.9-16.1-7.9-28.3V508h-21v70.4
		c0,17.5,4.6,30.9,14.1,40.1c9.6,9.2,22.2,13.8,38,13.8c13.9,0,25.7-4.4,35-13.1c9.2-8.8,14-22,14-39.6V508h-22V575.3z"/>
	<path d="M233.3,504h-62.7c-1.5,0-2.7,1.2-2.7,2.7v51.7c0,1.5,1.2,2.7,2.7,2.7h62.7c1.5,0,2.7-1.2,2.7-2.7v-51.7
		C236,505.2,234.8,504,233.3,504z M231,555h-58v-46h58V555z"/>
	<path d="M377.9,173.4l13.1-43.3c5.7-16.4-1.1-35-16.8-46.4l-35.8-25.3C327.5,50.6,314.7,47,301.3,47h-8.4c0,0,0,0,0,0h-22.7
		c-0.7-10-7.9-20-20.3-27.2C237.7,12.9,221.9,8.9,205,8.5c-0.9-0.1-1.9-0.2-2.8-0.2c-1,0-2,0-2.9,0.1c-16.6,0.4-32.1,4.5-44,11.3
		C142.7,27,135.6,37,134.9,47H112c0,0,0,0,0,0h-6.9C91.7,47,78.9,50.6,68,58.4L32.2,84C16.5,95.4,9.7,114,15.4,130.2l12.8,42.3
		c0,0.2-0.1,0.3-0.1,0.4L6.7,338.8c-0.4,3.2-0.7,6.4-0.7,9.6v265.3C6,642.2,29.6,665,58.2,665h288.8c28.6,0,52.1-22.8,52.1-51.4
		V349.9c0-3.2-0.2-6.4-0.6-9.5L377.9,173.4z M295,51h6.3c12.3,0,24,3.9,33.9,11.1L371,88c13.9,10,19.8,26.3,14.9,40.5l-13.3,44
		c0,0,0,0,0,0L350.2,245c-9,25.8-32.2,46.2-55.2,58.3V288h3.8c1.4,0,2.2-1.4,2.2-2.8v-15.1c0-1.4-0.8-2.1-2.2-2.1H295V168h3.5
		c1.4,0,2.5-1.8,2.5-3.2v-15.1c0-1.4-1.1-1.7-2.5-1.7H295V51z M280.1,552.2l-11.1-9.9V484h21v58.4L280.1,552.2z M290,550v67h-21
		v-67.7l9.6,8.7c0.5,0.5,1.3,0.7,1.9,0.7c0.7,0,1.3-0.3,1.8-0.8L290,550z M262,479v-10h34v10H262z M125.1,552.2l-11.1-9.9V484h21
		v58.4L125.1,552.2z M135,549.8V617h-21v-67.6l9.5,8.5c0.5,0.5,1.3,0.7,1.9,0.7c0.7,0,1.3-0.3,1.8-0.8L135,549.8z M108,479v-10h34
		v10H108z M105.5,464c-1.4,0-2.5,0.5-2.5,1.9v3.1v2H76v-68h33v61H105.5z M76,477h27v3v1c0,1.4,1.1,3,2.5,3h3.5v59.5
		c0,0.3,0,0.6,0,0.9V618H92.2c-8.6,0-16.2-8-16.2-16.6V477z M142,273v10h-34v-10H142z M114,268V168h21v100H114z M257,465.9v3.1v2
		H147v-2v-3.1c0-1.4-1.4-1.9-2.8-1.9H140v-61h124v61h-4.2C258.4,464,257,464.5,257,465.9z M140,398v-76.4c11,3.5,22.3,6.4,34,6.4
		h59.2c10.7,0,20.8-2.5,30.8-5.5V398H140z M135,289v110.6l-9.9,9.8l-11.1-9.9V289H135z M114,406.6l9.5,8.5c0.5,0.5,1.3,0.7,1.9,0.7
		c0.7,0,1.3-0.3,1.8-0.8l7.8-8.1V464h-21V406.6z M140,543.8c0-0.1,0-0.2,0-0.2V484h4.2c1.4,0,2.8-1.6,2.8-3v-1v-3h110v3v1
		c0,1.4,1.4,3,2.8,3h4.2v134H140V543.8z M278.6,415.1c0.5,0.5,1.3,0.7,1.9,0.7c0.7,0,1.3-0.3,1.8-0.8l7.6-7.9V464h-21v-57.6
		L278.6,415.1z M269,399.5V289h21v110.6l-9.9,9.8L269,399.5z M295,544.6c0-0.3,0-0.7,0-1.1V484h3.5c1.4,0,2.5-1.6,2.5-3v-1v-3h28
		v124.4c0,8.6-7.5,16.6-16.1,16.6H295V544.6z M329,471h-28v-2v-3.1c0-1.4-1.1-1.9-2.5-1.9H295v-61h34V471z M263,283v-10h33v10H263z
		 M269,268V168h21v100H269z M296,153v10h-34v-10H296z M269,52h21v96h-21V52z M246.9,24.8c10.6,6.1,16.7,14.2,17.5,22.2h-27.1
		c-0.5-12-6.1-23.7-14.6-30.8C231.7,18,240,20.8,246.9,24.8z M199.5,14.3c1,0,2-0.1,3-0.1c0.8,0,1.6,0.1,2.3,0.1
		c14.5,1.5,26,15.7,26.7,32.7h-58.7C173.5,30,185,15.9,199.5,14.3z M158.1,24.8c6.7-3.9,14.7-6.6,23.5-8.4
		c-8.4,7.1-13.9,18.6-14.4,30.6h-26.5C141.4,39,147.5,30.8,158.1,24.8z M140,51h124v97h-4.2c-1.4,0-2.8,0.3-2.8,1.7v15.1
		c0,1.4,1.4,3.2,2.8,3.2h4.2v100h-3.9c-1.4,0-2.1,0.7-2.1,2.1v15.1c0,1.4,0.7,2.8,2.1,2.8h3.9v28.9c-10,3.2-20.4,5.1-31.2,6.1h-58.7
		c-11.7-1-23.1-3.3-34.1-6.9V288h4.2c1.4,0,2.8-1.4,2.8-2.8v-15.1c0-1.4-1.4-2.1-2.8-2.1H140V168h4.2c1.4,0,2.8-1.8,2.8-3.2v-15.1
		c0-1.4-1.4-1.7-2.8-1.7H140V51z M114,52h21v96h-21V52z M142,153v10h-34v-10H142z M20.4,128.4c-4.9-14.1,1.1-30.3,14.9-40.3l35.8-26
		C81.1,54.9,92.8,51,105.1,51h3.9v97h-3.5c-1.4,0-2.5,0.3-2.5,1.7v15.1c0,1.4,1.1,3.2,2.5,3.2h3.5v100h-3.5c-1.4,0-2.5,0.7-2.5,2.1
		v15.1c0,1.4,1.1,2.8,2.5,2.8h3.5v14.4c-21-12.2-44.5-32.2-53.2-57.3L20.4,128.4z M393,613.6c0,25.7-20.4,47.4-46.1,47.4H58.2
		C32.5,661,12,639.3,12,613.6V348.3c0-3,0-6,0.3-8.9l19.7-154.6l18.7,62C60.4,274.4,86,296,109,308.5V398H74c-1.5,0-4,1.3-4,2.8
		v200.6c0,11.6,10.7,22.6,22.2,22.6h220.7c11.6,0,21.1-11.1,21.1-22.6V400.8c0-1.5-1.3-2.8-2.8-2.8H295v-88.6
		c24-12.4,50.5-34.4,60.3-62.7l18.5-60.6L392.7,341c0.3,2.9,0.3,5.9,0.3,8.9V613.6z"/>
</g>
<g>
</g>
<g>
</g>
<g>
</g>
<g>
</g>
<g>
</g>
<g>
</g>
<g>
</g>
<g>
</g>
<g>
</g>
<g>
</g>
<g>
</g>
<g>
</g>
<g>
</g>
<g>
</g>
<g>
</g>
</svg>
