<svg xmlns="http://www.w3.org/2000/svg" width="223" height="196" viewBox="0 0 223 196"><g><g clip-path="url(#clip-DC52EE31-13AE-47B0-B4FF-2C57AB8B04A0)"><g><g><path fill="#231f20" d="M185.3 83.042c.365 3.547-5.319 8.887-6.74 9.254m-83.067 13.51c-.73-.692-1.095-1.792-1.786-2.484 2.843-3.91 4.264-8.552 7.47-12.095h.366c0 3.584 1.056 7.86 1.056 11.403 0 1.059-1.056 2.484-2.111 3.543-.366.366-1.421 1.425-1.787 1.425-.365 0-1.095-.692-1.786-1.059-.365-.366-.73-.692-1.422-.733zM57.86 87.318c.365 4.27-2.477 7.484-6.74 8.175 0-.732.69-1.424 1.055-1.79 1.787-2.115 3.573-4.27 5.685-6.385.365 0 .365 0 0 0zm159.037-39.502c-.366 3.908-1.423 7.45-2.845 10.666v.366c-.692 1.425-4.268 12.09-5.325 13.515-.366-1.385 3.902-11.724 3.902-13.149 0-.366 0-1.058.365-1.424 1.058-3.908 2.48-6.758 3.903-9.974zM18.477 90.458c1.421-5.334 2.477-10.343 3.532-15.678 0-1.1.325-2.158.69-3.217.366-1.425.69-2.158 1.056-3.217.731-2.118.731-4.643 1.42-6.76 0-.692.326-1.792.691-2.485 1.746-4.967 3.167-10.303 4.953-14.945.365-1.792.73-3.543 1.421-5.335 0-.692.69-1.426.69-2.118s0-1.425-.365-2.117c-.366-1.059-1.096-1.792-1.786-2.484l-1.056-1.06c-.365-.325-.73-.325-1.421-.692-.366 0-.731-.366-1.056-.366-.325 0-1.746-.692-2.111 0-.325.692-.325 1.425-.69 2.117 0 1.426-.325 2.85-.69 4.276 0 .367-.325 1.1-.69 1.792-.366.366-.366 1.1-.366 1.792 0 .366-.366 1.1-.366 1.792-1.055 4.642-2.841 9.244-3.897 13.886v1.792c0 .367-.69.733-.69 1.425-.365 1.1-.365 2.159-.365 3.217-.325 2.525-1.422 5.01-2.111 7.493-.73 2.851-1.056 5.702-1.421 8.186 0 .733-.325 1.791-.69 2.85 0 .367-.366 1.06-.366 1.426V84.146c-.325 1.058-.325 2.483-.69 3.542-.73 2.851-1.096 5.335-1.787 8.186-.324 1.425-.324 2.85-.69 3.909-1.42.733-3.207 1.426-4.628 1.792-.69 0-1.421.367-2.111.367-.73.366-1.096.732-1.787.366-.325 0-.69 0-.69.366 0 .367.365 1.059.365 1.425 0 1.06.325 2.159.69 2.851.366 1.059 1.787 2.118 2.477 2.484 1.42.366 3.207-.326 4.263-.692-1.096 3.909-1.096 8.185-1.786 12.46 0 1.06-.366 1.793-.366 2.852-.325 1.75-.69 3.176-.69 4.968-.366 1.1-.366 2.158 0 3.217 0 .366 0 1.059.365 1.425 0 0 .31.16.459.401.065-.16.135-.305.232-.4.365-.327.69-.327 1.055-.693.366-.367.366-.693.366-1.059.69-3.584 1.42-6.76 2.11-9.978.326-1.425.691-2.484.691-3.909.366-2.525 1.056-5.009 1.421-7.493.366-.692.69-1.791 1.056-2.484.325-.733.325-1.425.69-1.792 3.533-1.425 7.795-2.484 12.058-2.85-.365 1.792-1.055 3.95-1.42 6.067-.69 2.118-.69 4.643-1.056 6.76-.325 1.426-.69 2.851-.69 4.277 0 .733-.366 1.791-.366 2.85 0 1.426.366 2.851.366 3.91 0 .692-.366 1.791 0 2.484 0 .326.365.692.69.692.325 0 .325-.366.69-.366.73-.326 1.42 0 1.786-.693.325-.366.69-.732.69-1.425 1.097-3.176 2.152-6.027 3.208-9.244 0-.366.366-.693.366-1.059 0-.692.365-1.791.365-2.484.365-2.158.73-3.95 1.42-6.068 0-.733 1.422-5.701 1.787-5.701 2.112.326 4.629.326 6.74.692 0 3.543.365 7.127 1.786 9.611l1.056 1.059c.365.366.73 1.058 1.42 1.425.732.326 1.097.326 1.787.692 1.056 0 1.787.693 2.476.693 1.097 0 2.153 0 3.208-.367.73 0 1.786-.366 2.842-.366.69 0 1.786 0 2.476-.367 1.421-.733 2.842-2.158 3.897-3.217 1.056-1.059 2.152-2.484 2.843-3.543 1.055-1.059 1.42-2.484 2.476-3.91.366-.692.69-1.424 1.055-2.117.366-.733 1.056-1.1 1.421-1.792.366-.692.69-1.425 1.056-2.118.365-.733.69-1.099 1.056-1.791.69-1.06 1.42-2.484 2.476-3.543.731.733 3.208.367 3.208 1.792.365.366-1.055 2.158-1.42 2.85-.731 1.1-1.056 2.159-1.422 3.217 0 .692-.324 1.792-.69 2.484-.365.692-.365 1.792-.365 2.484v2.118c.365 1.06.69 2.484 1.055 3.543.366.732.69 1.059 1.056 1.425.365.367 1.055.367 1.42.367.732.366 1.097.366 1.788.366 1.096 0 2.151-.326 3.207-.692 1.746-.692 2.111-1.426 3.532-2.485 2.111-1.75 3.898-3.543 5.319-4.968 2.152 3.217 4.628 6.435 8.891 7.127 2.11 0 4.953-.733 6.374-1.792 1.786-1.426 2.842-3.177 4.263-4.968.73-1.06 1.096-2.159 1.786-2.851.69-1.06 1.056-1.792 2.111-2.484.366 1.425.73 2.851 1.421 3.91.731 1.058 1.787 2.158 2.843 2.85.365.366.73.693 1.42 1.059.366.366 1.097.366 1.787.366 1.056 0 2.477.366 3.532.366h1.786c.731 0 1.056 0 1.421-.366.325-.366.325-.366.69-.366.366 0 1.056 0 1.422-.366.365 0 .69-.327 1.055-.693.73-.366 1.786-1.059 2.842-1.425.365 1.791 1.787 1.791 3.207 2.484.69.326 1.746.692 2.111.692.366 0 1.056-1.058 1.056-1.425.325-1.059.325-2.484.69-3.543.325-2.484 1.421-5.009 2.111-7.127.365-1.792 1.056-2.85 1.421-3.909.365-.692.69-1.792 1.056-2.484 0-.733.365-1.059.365-1.425.325-.367.325-1.059.69-1.425l1.421-1.425c.325-.366.325-.693.69-1.059.366-.692 1.056-.692 1.421-1.059.366-.367 1.096-.692 1.787-1.059 1.095-.733 3.572-1.425 4.628-.366.73.366.365 1.792.365 2.484-.325 1.1-.325 2.118-.69 3.217-.366 1.1-1.056 2.159-1.42 3.217-.691 1.425-1.422 3.217-2.112 4.642-.325.734-.325 1.792-.69 2.851-.326.733-.69 2.117-.69 2.85 0 .734 0 1.426.364 1.793.69 1.1 1.786 1.425 2.477 1.792 1.096.692 2.151 1.058 3.207 1.058h1.786c1.787 0 3.898-.733 5.32-1.791.69-.367 1.42-.733 2.11-1.426.365 0 .69-.325 1.056-.692l1.055-1.059 1.056-.692c.73.366 1.056 1.059 1.42 1.425.69 1.059 1.421 2.158 2.112 2.85.69.733 1.42 1.06 2.11 1.425 1.097.367 2.153 1.06 3.208 1.426 1.42.326 3.572.326 4.628-.366 4.222-2.851 9.216-8.552 13.114-11.403v2.484c0 1.425.324 2.851.69 4.276 0 1.059.731 2.484 1.787 2.85.69.367 1.42 1.06 2.11 1.426.69.366 1.786.366 2.477.366 1.056 0 2.477 0 3.532-.366 1.056-.367 1.786-.693 2.476-1.06.69-.732 1.422-1.058 2.112-1.424.365-.326.69-.326 1.055-.693.325 0 .325-.326.69-.692 1.422-1.059 2.477-1.792 3.533-2.85.69-1.1 1.42-2.16 2.11-3.218.366-1.059 1.056-1.792 1.422-2.85.69-1.426 0-3.218-1.421-2.851-1.056.366-2.152 2.158-2.842 2.85-1.056 1.06-2.111 2.485-3.533 2.851-.73.366-1.095.692-1.786 1.059-.73.366-1.096.692-1.787 1.058-.69.327-1.42.693-2.11.693s-1.786.367-2.477 0c-.325-.366-.69-1.059-.69-1.425-.366-.367-.366-1.1-.366-1.792 0-1.425 0-2.85-.365-4.276-.365-2.158-.365-4.643 0-6.068 0-.733.69-1.1 1.056-1.791.365-.734.69-1.1 1.056-1.792 1.745-2.85 3.532-5.702 4.952-8.552 1.056-1.792 1.787-3.543 2.477-5.335.365-1.426 1.055-2.484 1.42-3.543.366-1.1.731-2.158 1.421-3.217.73-1.426 1.056-2.484 1.421-3.91.366-1.425.73-2.484 1.421-3.909.365-.733.365-1.792.365-2.851s.69-1.791.69-2.484c.326-1.425.326-3.217.69-4.642.366-1.425.691-2.851 1.057-4.276.365-.733.365-1.1.365-1.792 0-1.426.324-2.484.69-3.91.365-1.792 1.42-4.642 0-5.7-1.055-.734-3.207-1.793-4.263-1.426-1.42.367-1.42 2.159-2.111 3.217-.69 1.425-1.786 3.217-2.476 4.643-1.786 3.217-3.208 6.393-4.628 9.61-.366 1.059-.69 1.792-1.056 2.484-.365 1.06-1.056 1.792-1.42 2.485-.326.692-.326 1.79-.691 2.483 0 1.06-.69 1.792-1.055 2.851-.326 1.1-.326 2.158-.69 3.217-1.422 4.276-3.208 8.186-3.898 12.461 0 1.06 0 1.792-.366 2.851-.325 1.426-.325 2.851-.69 4.276 0 1.425 0 3.217-.365 4.642-.325 2.484-.69 3.543-2.111 5.335-.366.733-1.056 1.426-1.421 1.792-.731.733-1.421 1.059-1.786 1.425-1.056.733-2.153 2.159-2.842 3.217-.366.734-1.056 1.426-1.422 1.792-.324.733-1.42 1.1-2.11 1.792-1.422 1.06-2.112 2.485-3.898 3.544-1.056.692-2.112 1.425-3.533 1.058-.365 0-.69-.326-1.055-.692-1.096-1.792-2.477-3.95-1.787-6.068 1.056.367 1.787 1.425 2.842 1.792 1.421.366 2.517-1.059 3.208-1.425 1.421-1.059 2.476-1.792 3.532-2.851 1.056-1.06 2.152-1.792 2.842-2.484l1.421-1.425c.365-.733.69-1.792 1.055-2.851.326-1.059.326-1.792.69-2.85 0-1.06.366-1.792 0-2.484-.364-1.752-2.15-2.485-3.207-3.544-.69-.692-1.786-1.425-2.476-2.117-1.055-1.059-3.532-1.751-5.318-1.059-.731.366-1.096.733-1.787 1.425-3.207 2.484-5.318 5.009-7.105 8.552-.73 1.425-1.461 2.85-1.786 4.276-.325 1.425-.325 3.543-.69 4.968-.691 1.059-1.421 1.791-2.111 2.484-.69.733-1.421 1.1-2.111 1.792-.69.733-1.422 1.1-2.112 1.792-.73.733-2.517 1.791-3.207 1.425-1.055-.367-.365-2.158 0-2.85.365-.692.69-1.792 1.056-2.485 0-.692.325-1.425.69-2.117.365-.692 1.055-1.425 1.42-2.118.326-.366.326-1.099.69-1.792.367-1.1 1.097-2.158 1.787-3.217.325-.733.69-1.1.69-1.792v-2.117c.326-1.425 1.056-2.484.691-4.276-.365-.692-1.056-1.425-1.421-2.117-.365-.367-1.096-1.06-1.786-1.426a7.875 7.875 0 0 0-2.843-1.792c-1.055 0-2.151 0-2.841.367-.69.366-1.787.692-2.477 1.058-.365 0-.69.326-1.055.693-.69.733-1.421 1.058-2.477 1.425.325-.367.325-1.059.69-1.425 0-.367.366-1.059.366-1.425.325-.734.325-1.1.69-1.792.365-.734.69-1.1 1.056-1.792.325-.367.325-1.1.69-1.792.365-.693 1.055-1.425 1.42-2.118 2.842-4.968 5.684-9.977 8.526-14.945 1.097-2.485 2.518-4.969 3.208-8.186.365-1.1.365-2.158.365-3.217 0-.732-.325-1.425-.69-1.791-.73-1.426-2.477-4.236-4.263-3.544-.731.367-1.422 2.16-1.786 2.851-.731 1.425-1.056 2.484-1.422 3.543-.73 1.425-1.096 2.484-1.786 3.543-.73 1.426-.73 2.85-1.42 3.91-.732 1.058-1.422 1.791-1.787 2.85-.365 1.426-.73 2.159-1.421 3.217-.69 1.751-1.421 3.543-2.111 4.969-.73 1.1-1.056 2.158-1.42 3.217-.691 1.425-1.421 3.217-2.112 4.642 0 .733-.325 1.1-.69 1.792 0 .733-.366 1.1-.366 1.792 0 .733-.325 1.1-.69 1.792-.325.367-.325 1.1-.69 1.792-.365 1.425-.73 2.484-1.42 3.91-.366.692-.691 1.424-1.057 2.117-.73 1.06-1.095 2.484-1.786 3.543-.365 1.059-1.056 1.792-1.42 2.85 0 .367 0 1.06-.366 1.426-.365.733-.69 1.792-1.056 2.85-.365 1.792-1.096 3.218-1.786 4.643 0 .366-.365.692-.365 1.058-.325.693-1.421 1.426-2.111 2.118-1.056.367-1.786 1.426-2.477 1.792-1.786 1.059-4.994 2.484-7.105 2.85-.69 0-1.42-.325-2.11-.692-.326 0-.326-.366-.691-.366-.365 0-.69 0-1.055-.366-1.747-1.792-1.381-3.584-.69-6.068 0-.693.69-1.425 1.055-2.117.365-.693.69-1.426 1.055-2.118.731-1.426 1.787-2.485 2.842-3.543.69-.693 1.056-1.751 2.112-2.118.364 0 1.055-.366 1.42 0 .365.367 0 .693 0 1.059s-.365.733-.365 1.425c0 .366.365.733.365 1.425 0 .733 0 1.06 1.056.367.365.692.69.692 1.055 1.058.365.367 1.056.693 1.42 1.06 1.787.732 2.112 0 2.477-1.06.366-.733.69-1.099 1.056-1.792.325-.733.325-1.1.69-1.792 0-.732.325-1.058.69-1.425.325-.366.69-.692.69-1.059 0-.366.366-.692.366-1.058.365-.733.365-1.792.365-2.851 0-.733-.325-1.059-.69-1.425-.365-.367-1.055 0-1.42 0h-.69c-.732-.326-1.422-1.425-1.787-2.118-.69-.733-1.787-1.425-2.477-1.791-.73-.733-1.786-.367-2.842-.367-.365 0-1.055.367-1.42.367-.366 0-1.056 0-1.422.366-.73 0-1.055.692-1.42 1.059-.365.366-1.056.692-1.421 1.058-1.056.692-2.152 1.792-2.842 2.484-1.097 1.426-2.152 2.85-3.207 4.643-.732.692-1.422 1.424-1.787 2.117-1.056 1.425-1.786 2.85-2.477 4.642-.689 1.425-1.785 2.851-2.476 4.276-.365.733-.73 1.426-1.42 1.792 0-2.85-.366-6.068-1.056-8.552-.69-2.484-1.056-5.701-.69-8.185.324-.367.69-1.1.69-1.792 0-1.792-1.421-3.217-2.477-4.276 0-.366 0-1.059-.365-1.425-.69-.693-1.422-1.059-2.111-1.059-.366 0-.69 0-1.056.366l-.366.367v.692c-.365 0-1.056 0-1.056.367v4.275c0 .367-.365.692-.365 1.059-.325.733-.325 1.059-.69 1.425-.366 1.059-1.056 1.791-1.421 2.484-.366 1.058-1.056 1.792-1.421 2.484-.366.692-.69 1.384-1.056 2.118-.365.733-1.056 1.099-1.42 1.791-1.422 1.751-2.112 3.543-3.533 4.969-2.111-1.792-3.532.367-2.476 2.85-1.056 1.792-2.843 3.218-4.263 4.643-1.056.692-1.787 1.425-2.477 2.117l-.69.693c-.365.366-1.42 1.425-1.786 1.058 0-.366.365-1.425.365-1.792 1.422-5.008 4.263-8.551 7.796-11.769.365-.733 1.42-1.425 1.42-2.85 0-1.426-.324-2.851-.69-3.91-.365-.733-.69-1.425-1.055-1.792-.69-.692-1.787-.692-2.476-1.058-1.056-.367-1.787-1.059-2.477-1.059-1.421-.367-2.477.692-4.263 1.059-.69-.734-.325-1.793-.69-2.851l-1.786-1.792c-.731-.326-1.097-1.751-1.787-2.118-.69-.366-2.111-.366-2.111.693 0 .366 0 .692-.366 1.059-.366.733-.69 1.099-1.056 1.791-.69 1.792.366 3.91 0 5.702 0 1.059-.73 2.85-1.42 3.91-.731 1.059-1.422 2.118-1.787 3.543 0 .326 0 .326-.365.692-.73.692-1.056 1.791-1.421 2.484-2.152 3.217-4.263 6.068-7.105 8.552-1.056 1.1-2.477 2.524-3.897 3.217-1.056.692-2.842 1.425-3.898 1.058-1.786-2.117-2.476-6.027-1.786-9.244 0 0 2.11-.366 2.476-.366 1.42-.366 2.842-1.059 4.263-1.425.69-.326 1.42-.326 2.111-.693.73 0 1.096-.326 1.787-.692.73 0 1.055-.326 1.42-.692.69-.734 1.787-1.1 2.477-1.792 1.055-1.426 1.055-2.851 1.42-4.968.326-1.426.691-2.485.691-3.544 0-.692-.69-1.791-1.056-2.484-.69-.733-1.42-1.425-2.11-1.791-.691-.734-1.421-1.06-2.112-1.426-1.096-.692-1.786-2.484-3.207-2.484-.325 0-1.746.326-2.111.693-2.477 1.058-3.898 2.483-5.32 4.276-.364.325-.69.325-1.055.692-1.786 2.118-2.841 4.601-3.897 6.393-.73 1.426-1.097 2.485-1.786 3.91-1.787 0-3.898 0-5.685-.366 0-.367.366-1.06.366-1.425 0-.734.365-1.1.365-1.793.731-2.85 2.152-5.7 2.842-8.551.731-1.751 1.056-3.218 1.787-4.969.73-1.751 1.42-3.176 1.786-4.968.69-2.484 1.421-4.643 2.111-6.76.73-1.792 1.096-3.91 1.787-5.701 1.096-2.851 2.151-5.335 3.207-8.186.69-1.792 1.42-3.584 2.111-5.701.325-.733.325-1.1.69-1.792.366-1.06.69-2.485 1.056-3.543v-1.792c0-.366-.325-1.059-.69-1.425-.366-.366-.69-1.059-1.056-1.426-.69-.733-2.476-3.217-3.532-2.85-.73 0-1.055 1.425-1.42 2.117 0 .693-.366 1.426-.366 2.118-.325 2.158-1.421 3.91-2.111 5.701-1.422 2.85-2.843 5.701-3.533 8.552-.365 1.751-.73 3.177-1.42 4.968-.731 1.426-.731 3.218-1.421 4.643-.365 1.425-1.056 2.117-1.421 3.543-.366 1.426-.69 2.485-1.056 3.91-.365 1.425-1.055 2.484-1.42 3.909-.325.692-.325 1.792-.69 2.484 0 .366-.366.692-.366 1.059v1.058c0 .367-.366.693-.366 1.059-.324.733-.324 1.1-.69 1.792-.324.692-.324 1.792-.69 2.484-.69 2.117-1.786 4.276-2.477 6.394-.73 1.79-.73 3.542-1.42 5.334-4.263-.367-8.526 1.425-12.058 1.425.324-2.85 1.745-5.334 1.42-6.837zm-12.681 44.43c-.117.067-.26.134-.433.201a.55.55 0 0 0 .433-.201zm.39-.823c-.113.283-.209.615-.39.823.527-.303.53-.598.39-.823z"/></g><g><path fill="#231f20" d="M102.926 1.878c0 1.792.69 3.543.69 5.701 1.056 0 3.533-1.059 3.208.692 0 1.06-2.111.693-3.208 1.06 0 2.117.366 4.275.69 6.393 1.056 0 3.898-1.06 4.264 0 .365 1.425-4.953 1.425-5.684 1.059-.69-4.643-1.056-10.67-1.056-15.679.69-.366 2.477-.366 3.532-.692.69 0 1.421-.367 1.421.366.406 1.1-2.76.734-3.857 1.1z"/></g><g><path fill="#231f20" d="M114.296 1.519c-.69-1.06-2.476-.367-2.841.692-.366.692-.366 1.791 0 2.484.365 1.058 1.786 2.117 2.476 3.543 1.421 1.792 2.477 3.909 1.421 6.76-1.056 1.425-3.897 2.117-5.318 0-.366-.693-1.422-4.968.365-4.968 1.42 0 0 4.642 2.111 4.642 1.055 0 2.11-.692 2.11-2.118-.364-3.542-4.262-4.967-4.627-8.918 0-.692 0-1.425.69-2.117 1.42-2.484 4.953-1.792 4.953 1.425 0 .366 0 1.425-.69 1.425-.366 0-.366-.692-.366-1.06.082-.732.082-1.058-.284-1.79z"/></g><g><path fill="#231f20" d="M124.928 1.882c-.69.692-2.11 0-2.842 0 0 3.91 0 7.819-.365 11.77v1.424c0 .693 0 1.426-1.056 1.426-.69-.693-.365-1.792-.365-2.485.365-3.909.365-8.185.69-12.094 0 .366-2.11 0-2.476 0-.365 0-1.056-.367-.69-.693 0-.366 1.055-.366 1.42-.366h2.842c1.096-.407 3.207-.407 2.842 1.018z"/></g><g><path fill="#231f20" d="M131.709 7.54c0-.692.365-1.792.365-2.484.366-.692 0-1.425.366-2.117.324-1.059 1.42-1.059 2.11-.692.731 0 1.421 1.099 1.421 1.791 0 .693-.365 1.426-.365 2.118 0 2.484-.69 4.642-1.056 6.76 0 1.425 0 2.85-1.786 2.484-1.786 0-1.786-2.85-1.42-4.968 0-1.1.364-1.791.365-2.892zm4.91 5.336c.366-1.792.691-3.584 1.056-5.702 0-1.425.366-2.85.366-3.909 0-.692-.73-2.158-1.421-2.484-.69-.326-3.208-.326-3.898.366-1.055.734-1.055 2.485-1.42 4.277-.366 2.117-1.422 6.067-1.056 8.185 0 1.059.73 2.159 1.786 2.85.325 0 .325.367.69.367h.69c.366 0 .366.326.366.693.325.366.325.692.69 1.059 1.056 2.158 3.573 2.525 5.685 3.217 4.627 1.425 10.311 1.425 15.63 2.118 3.208.692 6.374 1.425 9.581 2.483 1.421.734 2.842 1.1 4.263 1.792 1.056.693 2.477 1.059 3.533 2.118.365.367.73 2.158 1.786 1.792 1.42-.733-.69-2.851-1.055-3.218-2.842-2.484-7.105-3.909-10.637-4.968-2.842-.733-5.684-1.425-8.526-1.792-3.207-.326-6.374-.326-9.581-.692-.69 0-1.787 0-2.476-.367-1.421 0-2.843-.692-4.264-1.059-.365-.326-1.096-.326-1.786-.692l-1.055-1.06c-.366-.365-.69-1.058-1.056-1.424.73-.693 1.096-1.792 2.11-3.95z"/></g><g><path fill="#231f20" d="M99.756 16.825c-1.421 1.06-2.112-.366-2.842-1.791-1.056-2.118-2.477-5.335-3.208-7.127 0 2.118.366 4.643.69 6.76 0 .693.69 2.484-.69 2.484-1.055 0-1.055-3.543-1.42-4.642-.366-2.85-.366-5.335-1.056-8.185V2.899c0-.693.365-1.426 1.055-.693.69.367 1.056 1.06 1.421 1.792 1.056 2.85 2.111 5.701 3.533 8.552 0-1.792-.366-3.543-.366-6.068 0-1.425-1.055-5.335.69-4.968.69.367.69 1.059.69 2.118.406 3.95 1.503 8.551 1.503 13.193z"/></g><g><path fill="#231f20" d="M140.926 2.25c.366 0 .366.692.69 1.059 0 .692 0 1.425-.364 1.791-.366 2.118-.69 4.643-1.056 7.127 0 1.059-.365 2.118-.365 2.85.365 1.06 1.42 1.792 2.476 1.792 1.787-.366 1.787-2.85 2.111-4.968.365-2.118.69-3.543 1.056-6.068 0-1.059.365-2.484 1.055-2.484s.365 1.792.365 3.217c-.365 2.484-.69 4.276-1.055 6.394-.365 2.484-.69 4.642-2.842 5.335-2.476.692-4.953-1.06-4.628-3.91 0-1.425.69-3.217 1.055-4.642.366-1.792.366-3.218.69-4.969.082-.773.447-2.198.812-2.524z"/></g><g><path fill="#231f20" d="M91.234 17.522c-1.421.692-1.421-2.118-1.786-3.217-.69-2.85-.69-5.335-1.421-8.185 0-.692-.366-1.426-.366-2.118 0-.367-.365-1.425.366-1.792.69-.692 1.056 1.06 1.056 1.425 0 .366 0 1.06.365 1.426.365 1.791.69 2.85.69 4.642.04 3.217 1.462 6.068 1.096 7.819z"/></g><g><path fill="#231f20" d="M81.651 5.425c.69 1.792 1.056 3.543 1.421 5.334.69 0 3.532-1.791 4.263-.366.365 1.425-2.842 1.425-3.532 1.792 0 1.425.365 2.484 1.056 3.909.365 1.059 1.055 3.217-.366 3.217-1.056 0-1.421-2.85-1.786-3.91 0-.692 0-1.424-.366-1.791-.69-2.851-2.111-6.76-2.111-9.611 1.056 0 2.842-1.059 4.263-1.059.69 0 1.421 0 1.056 1.059-.366 1.059-3.207.734-3.898 1.426z"/></g><g><path fill="#231f20" d="M151.928 8.277c.366 1.791.366 4.276 0 5.701-.731 0-1.096-.326-1.786-.692.73-1.792 1.42-3.584 1.786-5.01zm.406 11.361c.69-.366.69-1.425.69-2.484 0-2.117.366-5.334.366-8.185-.365-1.059-.365-1.792-.365-2.484 0-1.059.365-2.81-.69-2.118-1.787 3.218-2.842 7.127-4.63 10.344-.364.693-.69 1.385-1.054 2.118-.366.733-.366 1.792.69 1.425 0 0 .365 0 .365-.367.325-.366.325-.692.69-1.059.73-1.058 1.056-1.79 1.421-2.483.69.366 1.42.692 2.111 1.059 0 1.058-1.056 4.642.406 4.234z"/></g><g><path fill="#231f20" d="M159.038 5.793c-.365 4.642-2.111 8.919-2.842 13.153.69.693 3.898.693 3.532 2.118 0 1.425-2.11 0-2.476 0-1.056-.367-2.476-.367-2.842-1.059-.365-.693.365-2.484.69-3.543.69-3.217 2.111-7.819 2.842-10.344.365.042.731-.692 1.096-.325z"/></g><g><path fill="#231f20" d="M69.23 7.904c.366 1.792 1.057 3.543 1.422 5.335l2.11-.693c.366 0 .691-.366 1.056-.366.69 0 1.056.692.366 1.425-.69.366-1.42.692-2.111.692l-1.056.366c.366 1.792 1.421 3.544 1.787 5.335 1.786-.366 3.207-1.425 4.953-1.059.69 1.06-1.056 1.426-2.112 1.792-1.42.367-3.207 1.426-3.897 0-.366-.692-.69-2.118-1.056-3.217-1.056-3.217-2.477-7.126-2.842-10.67 1.055-.366 3.532-1.79 4.628-1.424.366 0 .69.366.69.366.326 1.792-3.247 1.792-3.937 2.118z"/></g><g><path fill="#231f20" d="M165.777 7.58c.69.367.365 1.425 0 1.792-.69 3.217-1.42 6.393-2.476 9.61-.366 1.06-.69 3.91-2.111 3.218-.69-1.06.365-2.118.69-3.543.69-2.118 1.42-4.968 2.111-7.493.365-1.466.73-2.892 1.786-3.584z"/></g><g><path fill="#231f20" d="M171.778 10.755c-.365 2.484-1.787 4.642-2.477 6.76-.365 1.059-.365 2.117-.69 3.217-.365.692-.69 2.85-1.42 2.85-1.421 0-.366-2.484 0-3.217 1.055-3.543 2.476-6.76 3.532-9.977 0 0-1.421-.692-1.787-.692-.365 0-.365-.367-.69-.367 0 0-.365-1.059 0-1.059 1.055 0 2.111.367 3.898 1.059 1.055.367 2.476.692 2.476 1.425.365 1.792-2.111.367-2.842 0z"/></g><g><path fill="#231f20" d="M68.174 19.677c.365.367.365 1.06.69 1.425.366.692.69 1.792-.365 1.792-1.056.367-1.056-1.425-1.421-2.484-.365-1.06-1.421-2.85-1.421-3.91-1.056.367-1.786.693-2.842.693l1.056 3.217c.365.693.365 1.06.69 1.792 0 .692.69 1.792-.366 1.792-.69 0-1.055-1.06-1.055-1.792-.366-1.425-1.421-3.217-1.787-4.968-.69-1.792-1.055-3.543-1.42-5.335 0-.367-.69-1.425-.366-1.792.365-1.059 1.42.693 1.42 1.06.366.366.366 1.058.366 1.424.365 1.06 1.056 2.118 1.056 3.218 1.055 0 2.111-.692 3.207-1.059-.366-1.425-.69-2.118-1.056-3.91-.365-1.059-1.055-2.85 0-2.85.69 0 1.056 1.425 1.056 1.792.365.692.365 1.792.69 2.484.366 1.059.69 2.484 1.056 3.543.365.692.365 1.059.69 1.791-.244 1.344-.244 1.71.122 2.077z"/></g><g><path fill="#231f20" d="M176.047 11.12c.365 0 .365 0 0 0 .365.693 0 1.793.365 2.118 0 1.426 0 2.485.366 3.91.69-.693 2.111-1.425 3.207-2.118.365-.366.69-1.059 1.056-1.425.365-.367 1.055-.693 1.42-.367.366.692-.69 1.792-1.055 2.118-1.42 1.425-3.532 2.85-4.953 4.642-.366 1.425-1.056 3.543-1.787 5.335-.365.692-.365 2.117-1.786 1.425 0-1.792 1.055-3.91 1.786-5.701.366-1.426.69-2.485.69-4.969 0-.692-.365-1.792-.365-2.484s0-1.792.366-2.118c.365-.732.69-.732.69-.365z"/></g><g><path fill="#231f20" d="M55.016 13.278c1.056 2.484 2.476 6.393 3.898 9.61.365 1.06 1.786 3.218.365 3.544-1.056.366-1.421-1.792-1.787-2.851-1.42-3.217-2.476-6.393-3.531-9.61-1.056.366-1.787 1.059-2.843.692-.365-1.06 1.422-1.425 2.477-2.118 1.056-.366 2.477-1.425 3.208-1.425.365 0 1.055 0 1.055.692-.366.733-2.11.733-2.842 1.466z"/></g><g><path fill="#231f20" d="M105.442 54.21h6.374c0 .692.365 1.425 0 2.118-.366.366-1.42 0-2.111 0v12.827c-.366.367-1.787.367-2.111 0V56.002h-2.477c-.04 0-.406-1.425.325-1.792z"/></g><g><path fill="#231f20" d="M118.554 54.576v14.946c-.365.366-1.42 0-2.11 0-.366-1.792 0-4.643 0-6.76-.366-.367-1.056 0-1.421 0 0 2.117.365 4.968 0 6.76-.69 0-1.787.366-2.112-.367-.365-4.642 0-9.977.365-14.578.69-.367 1.422 0 2.112 0v5.701c.365.366 1.055 0 1.42 0 0-1.792-.365-4.276 0-6.068.325.366 1.056.366 1.746.366z"/></g><g><path fill="#231f20" d="M126.024 54.905c0 .366.365 1.425 0 1.792-.69.366-1.786 0-2.476 0-.365 1.059 0 2.85 0 3.91h2.476c0 .366.365 1.425 0 1.792-.365.366-1.42 0-2.11.366-.366 1.425 0 2.85 0 4.276h2.475c0 .366.366 1.059 0 1.792-1.786.366-3.207.366-4.952 0 0-3.218-.366-6.394-.366-9.611 0-1.425-.365-3.217.366-4.642.649 0 3.166 0 4.587.325z"/></g><g><path fill="#231f20" d="M122.45 124.292v6.067c0 1.058 0 2.158-.366 2.85 0 .732 0 1.425-1.055 1.425-.325 0-.69 0-.69-.367-.366-1.058-.366-1.791-.366-2.85V129.3c0-1.791-.365-4.642 0-5.7.365-.693.73-1.059 1.421-.693 0 0 .365 0 .365.367 0 0 0 .366.69 1.018zm-5.319.12c0 2.484-.365 9.611.69 10.67.366.326 1.786.692 2.477.692 1.055 0 2.151-.732 2.842-1.425.73-1.1.365-2.158.365-3.217v-1.792c0-1.792.365-3.95 0-6.068-.366-1.425-1.056-2.85-2.842-2.484-2.111.367-2.801 1.792-3.532 3.625z"/></g><g><path fill="#231f20" d="M115.347 126.86c-.69 0-1.421 0-1.787-.367-.365-.366-.365-1.059-.365-1.425 0-.693.365-1.792-.69-2.117-1.056-.367-1.421 1.058-1.421 1.791v5.335c0 1.425-.366 3.543.69 3.91 2.111.692 1.056-2.484 1.786-3.91h1.787c.365 1.792.365 4.642-.69 5.335-1.421 1.425-4.629.692-5.32-.693-.365-.366-.365-1.058-.365-1.791-.365-3.218.366-7.82.366-10.344.69-1.792 2.476-2.118 4.263-1.792.365 0 .69.366 1.055.692.366.367.69.693.69 1.06v1.424c.367.04 0 2.892 0 2.892z"/></g><g><path fill="#231f20" d="M66.381 125.758c-.365 0-1.421.367-1.421 0-.366-.692.365-2.117-.366-2.483-2.11-1.06-2.11 1.791-1.055 3.217 1.055 1.425 3.207 3.217 3.207 5.701 0 1.792-.365 4.276-2.842 4.276-2.842 0-2.842-3.217-2.477-5.335.366 0 1.056-.366 1.787 0 .365 1.06-.366 3.217 1.055 3.217.69-.366.69-1.792.69-2.483 0-.367-.365-1.06-.69-1.425-.69-1.426-2.476-2.852-2.842-3.91-.365-1.425 0-3.543.69-4.276.69-.692 2.842-1.059 4.264-.692.366.284.366 2.768 0 4.193z"/></g><g><path fill="#231f20" d="M70.288 121.48c.366 1.425 0 3.217 0 5.334 0 2.118-.365 4.276 0 5.702 0 1.058.69 2.483 2.111 1.792.69-1.792.366-3.91.366-6.394v-6.393c.365-.367 1.42-.367 1.786 0v7.819c0 1.792.365 3.91-.365 5.701-.69 1.792-3.898 2.118-5.32.692-.364-.692-.69-2.117-1.055-3.542v-5.702c0-1.792-.365-4.642.69-4.968.732-.367 1.422-.367 1.787-.042z"/></g><g><path fill="#231f20" d="M98.661 121.483c.69 1.425 1.056 3.217 1.787 4.642.69-1.425 1.42-2.85 1.786-4.642.365 0 1.421-.366 1.786 0 0 1.059-.69 2.484-1.055 3.543-.366 1.059-1.422 2.484-1.422 3.543-.365 2.484.69 4.968 0 7.493h-1.786v-6.068-1.425c0-.692-.69-1.425-.69-1.792-.366-.693-.366-1.425-.69-2.118-.366-1.058-1.056-1.791-.69-3.216-.446-.286.284.04.974.04z"/></g><g><path fill="#231f20" d="M136.653 131.461v2.488c-.364 0-1.414.367-1.777 0V129.3c0-.693 1.05 0 1.413 0s.363.367.363.367c.364.734 0 1.427 0 1.794zm-.404-8.184c.726.734.363 2.161.363 3.222 0 .693-.323 1.06-.687 1.06h-1.05v-4.65c.364 0 .727.368 1.374.368zm-3.485-2.117a107.205 107.205 0 0 0 0 15.313c1.421 0 3.573.366 4.628 0 1.746-.693 1.056-3.177 1.056-4.969-.326-1.425 0-2.484-.69-2.85.324-.734.69-1.426.69-1.793 0-1.425 0-2.85-.366-3.909-.365-1.425-1.055-1.792-2.476-1.792h-2.842s0 .326 0 0z"/></g><g><path fill="#231f20" d="M144.823 122.949v4.601c0 .366-1.056.366-1.42.366v-4.642c.364 0 1.42-.366 1.42-.325zm2.883.325c-.365-2.118-3.938-1.792-6.05-1.425-.73 4.275-.365 9.61-.365 14.253h2.477c0-2.118-.365-4.602 0-6.394h1.055c.73 1.792-.325 4.968.365 6.76.69-.366 1.787 0 2.477-.366-1.056-1.792 0-6.434-1.056-7.126.69-1.06 1.056-4.276 1.097-5.702z"/></g><g><path fill="#231f20" d="M168.612 123.598c.727 2.85 0 7.126.363 10.344h-1.78v-10.67c.364.367 1.416 0 1.417.326zm2.112 11.077v-2.851-5.334-2.485c0-.367 0-1.425-.365-1.792-.69-1.058-3.167-1.058-4.954-.692-.365 3.217-.365 7.493-.365 11.036 0 1.06 0 2.485.365 3.543 1.787.367 4.954.693 5.319-1.425z"/></g><g><path fill="#231f20" d="M88.712 126.817c-.69.366-1.055.366-2.111.366v-3.544h1.786c.69.692.365 2.118.325 3.178zm1.055 2.157c1.056-.733 1.056-4.276.69-5.701 0 0-.325-1.06-.69-1.425-.69-.693-4.263 0-4.953 0-.365 4.276-.365 9.977 0 14.253.366.366 1.42.366 1.786 0 .366-2.118 0-4.643.366-6.76 1.056 0 2.11.326 2.8-.367z"/></g><g><path fill="#231f20" d="M94.442 121.48c.365 3.544 0 8.186.365 12.095.69 0 2.477-.366 3.208.367v2.118c-1.421 0-3.898.366-4.954-.367 0-4.642-.365-9.977.366-14.253-.082.04.65.04 1.015.04z"/></g><g><path fill="#231f20" d="M151.603 126.492c.325 1.424.69 2.848.69 4.272h-1.42c.324-1.424.324-2.848.73-4.272zm-1.096-5.372c-.366 0-.366.366-.366.366-1.055 4.601-1.746 9.937-2.111 14.58h1.787c.69-.734.69-2.16.69-3.218.69 0 1.746-.367 2.11 0 0 .733.366 1.792.366 2.85.366.367 1.096.367 1.787.367.325-.692-.366-1.792-.366-2.484 0-.733 0-1.792-.365-2.85 0-1.1-.325-2.159-.69-3.218-.325-1.059-.69-2.484-.69-3.543 0-.366 0-2.484-.365-2.484-.731 0-1.097 0-1.787-.366z"/></g><g><path fill="#231f20" d="M162.93 121.855v7.493c0 2.484.366 5.334-.364 7.127-.366 0-1.421 0-2.111-.367-.365-2.484-1.421-5.335-2.112-7.819-.365 2.484.366 5.335 0 8.186-.69.366-1.786 0-2.11-.367-.366-4.276 0-9.977 0-14.253h2.11c1.056 2.118 2.112 4.642 2.477 7.493.365-2.118-.365-5.335.365-7.493.325-.367.69-.367 1.746 0z"/></g><g><path fill="#231f20" d="M78.81 123.239c.732 0 1.421 0 1.787.367.365 1.102.365 2.162.365 3.223-.365.367-1.096.367-1.786.367 0-1.06 0-2.488-.365-3.957zm-1.42-1.75c-.366 5.009-.366 9.61-.042 14.213.366.366 1.422.366 1.787.366.366-1.751 0-4.602.366-6.393 1.096 0 2.517.366 3.207-.693.73-1.058 0-6.76-.69-7.126-1.421-1.06-2.842 0-4.629-.367 0 0 0 .367 0 0z"/></g><g><path fill="#231f20" d="M127.082 133.258c0 1.06.365 2.484-.365 2.85-.73.368-1.421 0-1.787-.366v-2.85c.73-.367 1.42 0 2.152.366z"/></g><g><path fill="#231f20" d="M122.092 148.565c.69-1.792-1.055-2.484-2.11-3.217-9.217-1.059-7.47 10.669-.69 11.036 2.841 0 6.048-1.425 8.89-2.484.69-.366 2.111-.693 2.842 0 .69 1.059-.69 2.117-.365 2.484 2.111.692 4.629-2.484 6.74-2.118 1.056 0 2.476 1.425 1.42 2.851h70.278c1.056 0 3.897-.366 4.263.367.365 1.425-3.533.692-4.628.692H16.697c-1.055 0-4.953.366-4.628-.692 0-.693 3.208-.367 3.898-.367h69.587c0-.692-1.056-1.425-.366-2.484 3.533-1.059 5.684 1.792 8.526 1.792.69-1.059-1.786-1.425-1.055-2.85.69-1.426 4.262 1.424 5.318 1.791 2.111.693 5.318 1.426 7.795.693 3.207-.693 5.319-4.642 3.898-7.82-.366-1.058-1.787-2.483-3.533-2.85-2.11 0-4.628 1.059-4.263 3.543 1.787 0 1.787-1.792 3.532-1.792 3.208 0 3.208 4.642.366 5.702-3.532 1.058-6.05-2.484-5.319-5.335.69-2.118 4.264-3.91 7.105-2.85 1.42.366 2.477 1.791 2.842 2.85 1.786 3.91-1.056 7.127-3.532 9.978 2.476-.367 5.318 0 8.16 0-1.42-2.485-4.263-6.76-2.11-10.344.69-1.425 2.475-2.484 4.627-2.851 1.42 0 3.898 0 4.953 1.059 2.842 2.85 0 8.185-3.532 7.493-2.842-.367-3.532-5.702 0-5.702 1.38.366 2.07 1.058 3.126 1.425z"/></g><g><path fill="#231f20" d="M138.778 172.796c.37.324.37 1.418.37 2.108h-.7c0-1.055.33-1.42.33-2.108zm-2.03-6.8c-1.421 4.642-2.152 9.284-3.208 14.252.69.367 2.842.367 3.532.367.325-1.059.325-2.158.69-2.85.691 0 1.746-.367 2.112 0 0 .691 0 1.79.365 2.483h3.898a640.376 640.376 0 0 1-3.208-14.253c-.73-.326-2.841 0-4.182 0z"/></g><g><path fill="#231f20" d="M131.342 166.36c0 4.642.365 10.344 0 14.253-1.056 0-2.112 0-2.842-.367-.366-2.117 0-4.275 0-6.393-.69 2.118-1.422 4.642-2.112 6.393-.69.367-1.786 0-2.842 0-1.055-1.791-1.42-3.909-1.786-5.701-.365 1.792 0 4.276-.365 5.335-.69.366-2.111.366-2.843 0 0-4.276-.365-9.978 0-13.887 1.056-.366 2.843 0 3.898 0 1.055 2.117 1.42 5.335 2.476 7.493 1.056-2.118 1.421-4.969 2.477-7.493 1.097 0 2.518 0 3.939.367z"/></g><g><path fill="#231f20" d="M65.653 166.36v2.85h-2.111c-.69 3.91 0 7.127-.366 11.037h-3.532c-.365-3.217 0-7.493 0-11.036-.69-.367-1.42 0-2.842-.367-.365-.692 0-1.792 0-2.484h8.851z"/></g><g><path fill="#231f20" d="M95.82 169.217c.689 1.792.689 6.067 0 8.185-.326.366-1.747.366-2.112.366v-8.551h2.111zm-4.954-2.851c-.366 4.643-.366 9.611-.366 13.886 2.842.326 8.202 1.06 8.892-1.791-.69-4.969 1.42-10.67-2.477-12.095-1.42-.367-4.262.366-6.049 0 0 0-.366 0 0 0z"/></g><g><path fill="#231f20" d="M167.19 166.363c-.69 2.484-2.11 4.276-3.207 6.394 1.055 3.217 3.207 4.642 4.628 7.492-1.786 0-3.207.367-4.953 0-.69-1.058-1.787-2.484-2.477-3.543-.365 1.059 0 2.851-.365 3.543h-3.532c-.365-4.275-.365-9.61 0-14.253h3.532c.365 1.06 0 2.484 0 3.543.69-1.425 1.421-2.483 2.477-3.909 1.42.733 2.842.733 3.897.733z"/></g><g><path fill="#231f20" d="M70.61 168.848c.366.366 1.056 0 1.422.366.365.693.365 1.426.365 2.118-.365.366-.73.366-1.421.366 0-1.058 0-1.791-.365-2.85zm4.588-1.059c-1.056-2.483-5.319-1.425-7.796-1.425 0 3.91-.365 9.244 0 13.52 1.097.366 2.518 0 3.208 0 .365-1.792 0-4.276.365-6.068 2.477 0 .731 4.643 1.787 6.068 1.056.366 3.207.366 4.263 0-1.421-1.792 0-6.068-2.111-7.126 1.055-.693 1.42-3.544.284-4.969z"/></g><g><path fill="#231f20" d="M149.09 168.848c.365.366 1.056 0 1.421.366.365.693.365 1.426.365 2.118-.365.366-.73.366-1.42.366 0-1.058 0-1.791-.366-2.85zm4.547-1.059c-1.055-2.483-5.318-1.425-7.795-1.425 0 3.91-.365 9.244 0 13.52 1.097.366 2.518 0 3.207 0 .366-1.792 0-4.276.366-6.068 2.476 0 .73 4.643 1.786 6.068 1.056.366 3.208.366 4.263 0-1.42-1.792 0-6.068-2.11-7.126 1.055-.693 1.42-3.544.283-4.969z"/></g><g><path fill="#231f20" d="M83.047 172.783c.028.468.11.94.351 1.396h-.69c.24-.455.323-.928.34-1.396zm-.014-.722c.014.237.023.48.014.722-.014-.243-.014-.485-.014-.722zm-1.706-5.7c-1.42 4.275-2.517 9.244-3.207 13.52h3.897c-.324-1.1 0-2.16.366-3.218.73 0 1.421-.366 1.786 0 .366 1.1.69 2.158 1.056 3.217 1.421 0 2.842.367 3.532 0-.365-2.118-1.42-4.276-1.786-6.76-.73-2.484-.73-4.968-1.786-6.76-1.421 0-2.842.367-3.858 0z"/></g><g><path fill="#231f20" d="M212.992 187.01c0 1.791-2.476 1.058-4.262 1.058h-15.956c-5.684 0-11.368-.366-17.377 0-11.002.366-32.316-.366-46.85 0 0 .692.69 1.425.364 2.118-.69 1.792-3.897.366-5.318-.367-.69 2.851-2.842.367-4.628-.366-1.056-.367-2.477-1.059-3.898-.693-1.42.367-2.476 3.218-1.42 4.643.69 1.058 3.207 1.792 3.897-.367-.69-.366-1.42 1.06-2.476.367-1.421-1.059 0-2.484.69-2.484 1.055-.367 2.842.366 2.842 1.425 1.055 3.543-4.263 4.276-5.684 2.484-1.787-1.792-.365-5.335 1.42-6.76h-4.627c.365 1.425 1.786 2.117 1.786 3.543.365 2.85-2.111 4.642-4.628 4.276-1.787-.367-2.477-2.851-1.421-4.276 1.056-1.059 4.263-1.059 3.897 1.059-.365 1.791-2.111.692-3.207 1.058.69 1.792 3.897.693 3.897-1.058.365-1.426-1.056-3.218-2.111-3.544-2.842-.692-4.628 3.544-7.105 2.118-.365-.367-.69-.692-.69-1.426-1.056 1.426-6.374 1.426-4.263-1.791H16.005c-1.055 0-4.628.366-4.953-.367-.365-1.058 2.477-.692 3.533-.692 10.636-.692 21.64 0 31.951 0h162.559c1.746-.325 3.166-.65 3.897.041z"/></g><g><path fill="#231f20" d="M109.343 166.365c.366.692.366 2.484 0 3.217-.69 0-2.11.366-3.532 0v2.117c1.056 0 2.477-.366 3.532 0 .366.693.366 2.118 0 2.851-1.055.367-2.11.367-3.532.367-.365.692 0 1.792 0 2.484h3.532c.366.692.366 2.117 0 2.85-1.786.367-4.628 0-6.739.367-.365-4.276-.365-9.978 0-14.253 2.111-.367 4.953-.367 6.74 0z"/></g></g></g></g></svg>