<svg xmlns="http://www.w3.org/2000/svg" width="80" height="70" viewBox="0 0 80 70"><g><g><g><path fill="#231f20" d="M66.385 29.66c.132 1.263-1.913 3.163-2.424 3.293M34.21 37.784c-.263-.247-.394-.639-.642-.886 1.021-1.394 1.532-3.05 2.684-4.313h.131c0 1.278.38 2.803.38 4.066 0 .378-.38.886-.759 1.264-.131.13-.51.508-.642.508-.13 0-.393-.247-.641-.377-.132-.131-.263-.247-.511-.262zm-13.473-6.596c.131 1.528-.89 2.677-2.424 2.925 0-.263.249-.51.38-.64.642-.757 1.285-1.528 2.044-2.285.131 0 .131 0 0 0zm56.962-14.111a12.11 12.11 0 0 1-1.021 3.807v.131c-.248.509-1.532 4.316-1.912 4.824-.13-.494 1.401-4.185 1.401-4.693 0-.131 0-.378.131-.509.38-1.395.89-2.412 1.401-3.56zM6.622 32.304c.51-1.905.887-3.694 1.266-5.599 0-.393.116-.77.247-1.149.13-.509.247-.77.378-1.149.262-.756.262-1.658.509-2.414 0-.247.116-.64.247-.887.626-1.775 1.135-3.68 1.775-5.338.13-.64.261-1.266.509-1.905 0-.248.247-.51.247-.757s0-.509-.13-.756c-.132-.378-.394-.64-.641-.887l-.378-.378c-.131-.117-.262-.117-.51-.248-.13 0-.261-.13-.377-.13-.117 0-.626-.248-.757 0-.116.247-.116.508-.247.756 0 .509-.116 1.018-.247 1.527 0 .13-.117.392-.247.64-.131.13-.131.392-.131.64 0 .13-.131.392-.131.64-.378 1.657-1.018 3.301-1.396 4.959v.64c0 .13-.248.262-.248.509-.13.393-.13.77-.13 1.149-.117.902-.51 1.789-.757 2.676-.261 1.018-.378 2.036-.509 2.923 0 .262-.116.64-.247 1.018 0 .131-.131.379-.131.51v.756c-.116.378-.116.887-.247 1.265-.262 1.018-.393 1.905-.64 2.923-.116.51-.116 1.019-.247 1.397a8.619 8.619 0 0 1-1.658.64c-.248 0-.51.13-.757.13-.261.131-.392.262-.64.131-.116 0-.247 0-.247.131s.13.378.13.51c0 .377.117.77.248 1.017.131.379.64.757.887.887.51.131 1.15-.116 1.527-.247-.392 1.396-.392 2.923-.64 4.45 0 .379-.13.64-.13 1.019-.117.625-.248 1.134-.248 1.774a1.73 1.73 0 0 0 0 1.149c0 .13 0 .378.131.509 0 0 .111.057.164.143a.434.434 0 0 1 .083-.143c.131-.116.248-.116.379-.247.13-.131.13-.248.13-.378.248-1.28.51-2.415.757-3.564.116-.509.247-.887.247-1.396.131-.902.378-1.789.51-2.676.13-.247.246-.64.377-.887.117-.262.117-.51.248-.64a15.407 15.407 0 0 1 4.32-1.018c-.131.64-.379 1.41-.51 2.167-.247.756-.247 1.658-.378 2.414-.116.51-.247 1.018-.247 1.527 0 .262-.131.64-.131 1.018 0 .51.13 1.019.13 1.397 0 .247-.13.64 0 .887 0 .116.132.247.248.247.116 0 .116-.13.247-.13.262-.117.51 0 .64-.248.117-.131.248-.262.248-.509.392-1.134.77-2.153 1.149-3.302 0-.13.13-.247.13-.378 0-.247.131-.64.131-.887.131-.77.262-1.41.51-2.167 0-.262.509-2.036.64-2.036.756.116 1.657.116 2.414.247 0 1.265.13 2.545.64 3.433l.378.378c.13.13.262.378.509.509.262.116.393.116.64.247.378 0 .64.247.887.247.393 0 .77 0 1.149-.13.262 0 .64-.131 1.018-.131.247 0 .64 0 .887-.131.51-.262 1.018-.771 1.396-1.15.378-.378.771-.887 1.018-1.265.379-.378.51-.887.888-1.396.13-.247.247-.509.378-.756.13-.262.378-.393.509-.64.13-.247.247-.51.378-.757.13-.261.247-.392.378-.64.247-.378.509-.887.887-1.265.262.262 1.15.131 1.15.64.13.131-.379.771-.51 1.018-.261.393-.378.771-.509 1.15 0 .246-.116.64-.247.886-.13.247-.13.64-.13.888v.756c.13.378.246.887.377 1.265.131.262.248.378.379.509.13.131.378.131.509.131.261.13.392.13.64.13.392 0 .77-.116 1.149-.246.625-.248.756-.51 1.265-.888.756-.625 1.396-1.265 1.905-1.774.771 1.149 1.658 2.298 3.185 2.545.757 0 1.775-.262 2.284-.64.64-.509 1.018-1.134 1.527-1.774.262-.378.393-.77.64-1.018.247-.378.378-.64.756-.887.13.509.262 1.018.509 1.396.262.378.64.77 1.018 1.018.131.13.262.247.51.378.13.131.392.131.64.131.378 0 .886.13 1.265.13h.64c.261 0 .378 0 .509-.13.116-.13.116-.13.247-.13.13 0 .378 0 .509-.132.13 0 .247-.116.378-.247.262-.13.64-.378 1.018-.509.13.64.64.64 1.149.887.247.116.625.247.756.247s.378-.378.378-.509c.117-.378.117-.887.248-1.265.116-.887.509-1.789.756-2.545.13-.64.378-1.018.509-1.396.13-.248.247-.64.378-.888 0-.261.13-.378.13-.509.117-.13.117-.378.248-.509l.51-.509c.116-.13.116-.247.247-.378.13-.247.378-.247.509-.378.13-.13.392-.247.64-.378.392-.262 1.28-.509 1.657-.13.262.13.131.64.131.886-.116.393-.116.757-.247 1.15-.13.392-.378.77-.509 1.148-.247.51-.51 1.15-.756 1.658-.117.262-.117.64-.248 1.018-.116.262-.247.757-.247 1.019 0 .261 0 .509.13.64.248.392.64.509.888.64.393.247.77.378 1.15.378h.639c.64 0 1.396-.262 1.905-.64.248-.131.51-.262.757-.51.13 0 .247-.116.378-.247l.378-.378.378-.247c.262.13.378.378.509.509.247.378.509.77.756 1.018.247.262.51.378.756.509.393.13.771.378 1.15.509.508.116 1.28.116 1.657-.13 1.513-1.019 3.302-3.055 4.698-4.073v.887c0 .509.116 1.018.247 1.527 0 .378.262.887.64 1.018.248.131.51.378.757.51.247.13.64.13.887.13.378 0 .887 0 1.265-.13.378-.132.64-.248.887-.379.247-.262.51-.378.757-.509.13-.116.247-.116.378-.247.116 0 .116-.117.247-.248.51-.378.887-.64 1.265-1.018.248-.392.51-.77.756-1.149.131-.378.379-.64.51-1.018.247-.509 0-1.149-.51-1.018-.378.131-.77.771-1.018 1.018-.378.378-.756.887-1.265 1.018-.262.131-.393.248-.64.378-.262.131-.393.248-.64.379-.247.116-.51.247-.756.247-.247 0-.64.13-.887 0-.117-.13-.248-.378-.248-.51-.13-.13-.13-.392-.13-.639 0-.509 0-1.018-.131-1.527-.131-.77-.131-1.658 0-2.167 0-.262.247-.393.378-.64.13-.262.247-.393.378-.64.625-1.018 1.265-2.036 1.774-3.054.378-.64.64-1.266.887-1.906.131-.509.379-.887.51-1.265.13-.393.261-.77.508-1.149.262-.51.378-.887.51-1.396.13-.51.261-.887.508-1.396.131-.262.131-.64.131-1.019 0-.378.247-.64.247-.887.117-.509.117-1.149.248-1.658.13-.509.247-1.018.378-1.527.13-.262.13-.393.13-.64 0-.509.117-.887.248-1.396.13-.64.509-1.658 0-2.036-.378-.262-1.149-.64-1.527-.51-.509.132-.509.772-.756 1.15-.248.509-.64 1.149-.887 1.658-.64 1.149-1.15 2.283-1.658 3.432-.131.378-.248.64-.378.887-.131.379-.379.64-.51.888-.116.247-.116.64-.247.887 0 .378-.247.64-.378 1.018-.116.392-.116.77-.247 1.149-.51 1.527-1.15 2.923-1.396 4.45 0 .378 0 .64-.131 1.018-.117.51-.117 1.018-.248 1.527 0 .51 0 1.15-.13 1.658-.117.887-.248 1.266-.757 1.906-.13.261-.378.509-.509.64-.262.261-.509.378-.64.509-.378.261-.77.77-1.018 1.148-.13.262-.378.51-.509.64-.116.262-.509.393-.756.64-.51.379-.756.888-1.396 1.266-.379.247-.757.509-1.266.378-.13 0-.247-.116-.378-.247-.392-.64-.887-1.411-.64-2.167.378.13.64.509 1.018.64.51.13.902-.378 1.15-.51.508-.377.887-.64 1.265-1.017.378-.379.77-.64 1.018-.888l.509-.508c.13-.262.247-.64.378-1.019.116-.378.116-.64.247-1.018 0-.378.131-.64 0-.887-.13-.625-.77-.887-1.149-1.265-.247-.248-.64-.51-.887-.757-.378-.378-1.265-.625-1.905-.378-.262.131-.393.262-.64.51-1.15.886-1.905 1.788-2.545 3.054-.262.508-.524 1.018-.64 1.527-.117.509-.117 1.265-.248 1.774-.247.378-.509.64-.756.887-.247.262-.509.393-.756.64-.247.262-.51.393-.756.64-.262.262-.902.64-1.15.51-.377-.132-.13-.772 0-1.02.132-.246.248-.639.379-.886 0-.248.116-.51.247-.757s.378-.508.509-.756c.117-.13.117-.392.247-.64.131-.392.393-.77.64-1.149.117-.262.248-.392.248-.64v-.756c.116-.509.378-.887.247-1.527-.13-.247-.378-.51-.51-.756-.13-.131-.392-.378-.639-.51a2.822 2.822 0 0 0-1.018-.64c-.378 0-.771 0-1.018.132-.247.13-.64.247-.887.378-.131 0-.248.116-.378.247-.248.262-.51.378-.888.509.117-.13.117-.378.248-.509 0-.13.13-.378.13-.509.117-.262.117-.393.248-.64.13-.262.247-.393.378-.64.116-.131.116-.393.247-.64s.378-.509.51-.756c1.017-1.774 2.035-3.564 3.053-5.338.393-.887.902-1.774 1.15-2.923.13-.393.13-.771.13-1.15a.953.953 0 0 0-.247-.64c-.262-.508-.887-1.512-1.527-1.264-.262.13-.51.77-.64 1.018-.262.509-.378.887-.51 1.265-.261.509-.392.887-.64 1.265-.26.51-.26 1.018-.508 1.396-.262.379-.51.64-.64 1.019-.13.509-.262.77-.51 1.149a27.134 27.134 0 0 1-.755 1.774c-.262.393-.379.77-.51 1.149-.247.509-.508 1.149-.756 1.658 0 .262-.116.393-.247.64 0 .262-.13.393-.13.64 0 .262-.117.393-.248.64-.116.13-.116.393-.247.64-.131.509-.262.887-.51 1.396-.13.247-.247.509-.377.756-.262.379-.393.888-.64 1.266-.131.378-.379.64-.51 1.018 0 .13 0 .378-.13.509-.131.262-.248.64-.378 1.018-.131.64-.393 1.149-.64 1.658 0 .13-.131.247-.131.378-.116.247-.51.509-.756.756-.379.131-.64.51-.888.64-.64.378-1.789.888-2.545 1.018-.247 0-.509-.116-.756-.247-.116 0-.116-.13-.247-.13s-.248 0-.378-.132c-.626-.64-.495-1.28-.248-2.167 0-.247.248-.509.378-.756.131-.247.248-.509.379-.756.261-.51.64-.887 1.018-1.265.247-.248.378-.626.756-.757.13 0 .378-.13.509 0 .13.131 0 .248 0 .378 0 .131-.131.262-.131.51 0 .13.13.26.13.508 0 .262 0 .378.379.131.13.247.247.247.378.378s.378.248.509.378c.64.262.756 0 .887-.378.131-.262.248-.392.378-.64.117-.261.117-.392.248-.64 0-.261.116-.378.247-.509.116-.13.247-.247.247-.378 0-.13.131-.247.131-.378.13-.262.13-.64.13-1.018 0-.262-.116-.378-.246-.51-.131-.13-.378 0-.51 0h-.247c-.262-.115-.509-.508-.64-.755-.247-.262-.64-.51-.887-.64-.262-.262-.64-.131-1.018-.131-.13 0-.378.13-.509.13-.13 0-.378 0-.509.132-.262 0-.378.247-.509.378-.13.13-.378.247-.509.378-.378.247-.77.64-1.018.887-.393.509-.77 1.018-1.149 1.658-.262.247-.51.509-.64.756-.378.51-.64 1.018-.887 1.658-.247.51-.64 1.018-.887 1.527-.131.262-.262.51-.509.64 0-1.018-.131-2.167-.378-3.054-.248-.887-.378-2.036-.248-2.923.117-.131.248-.393.248-.64 0-.64-.51-1.15-.887-1.527 0-.131 0-.379-.131-.51-.248-.247-.51-.378-.757-.378-.13 0-.247 0-.378.131l-.13.131v.247c-.132 0-.379 0-.379.131v1.528c0 .13-.13.246-.13.377-.117.262-.117.378-.248.51-.131.377-.378.64-.51.886-.13.378-.377.64-.508.888-.131.247-.248.494-.379.756-.13.262-.378.392-.509.64-.509.625-.756 1.265-1.265 1.774-.756-.64-1.265.131-.887 1.018-.378.64-1.018 1.15-1.527 1.658-.378.247-.64.51-.887.756l-.247.248c-.131.13-.51.509-.64.378 0-.131.13-.51.13-.64.51-1.789 1.528-3.054 2.793-4.203.131-.262.51-.51.51-1.018 0-.51-.117-1.019-.248-1.397-.131-.261-.247-.509-.378-.64-.247-.247-.64-.247-.887-.378-.379-.13-.64-.378-.888-.378-.509-.13-.887.247-1.527.378-.247-.262-.116-.64-.247-1.018l-.64-.64c-.262-.116-.393-.625-.64-.756-.247-.13-.756-.13-.756.247 0 .131 0 .247-.131.378-.131.262-.247.393-.378.64-.248.64.13 1.397 0 2.036 0 .379-.262 1.019-.51 1.397-.261.378-.508.756-.64 1.265 0 .117 0 .117-.13.247-.262.248-.378.64-.51.888-.77 1.148-1.526 2.167-2.544 3.054-.379.392-.888.901-1.397 1.149-.378.247-1.018.509-1.396.378-.64-.756-.887-2.153-.64-3.302 0 0 .757-.13.887-.13.51-.131 1.019-.379 1.528-.51.247-.116.508-.116.756-.247.262 0 .393-.116.64-.247.262 0 .378-.116.509-.247.247-.262.64-.393.887-.64.378-.51.378-1.018.509-1.775.116-.509.247-.887.247-1.265 0-.247-.247-.64-.378-.887-.247-.262-.509-.51-.756-.64-.248-.262-.51-.378-.756-.51-.393-.246-.64-.886-1.15-.886-.116 0-.625.116-.756.247-.887.378-1.396.887-1.905 1.527-.131.117-.247.117-.378.247-.64.757-1.018 1.644-1.397 2.284-.261.509-.392.887-.64 1.396-.64 0-1.396 0-2.036-.13 0-.132.131-.379.131-.51 0-.262.131-.392.131-.64.262-1.018.771-2.036 1.018-3.054.262-.625.379-1.149.64-1.774.262-.626.51-1.135.64-1.775.247-.887.51-1.658.757-2.414.261-.64.392-1.396.64-2.036.392-1.019.77-1.906 1.148-2.924.248-.64.51-1.28.757-2.036.116-.262.116-.393.247-.64.13-.378.247-.887.378-1.265v-.64c0-.131-.116-.378-.247-.51-.131-.13-.247-.377-.378-.508-.248-.262-.887-1.15-1.266-1.018-.261 0-.378.509-.509.756 0 .247-.13.51-.13.756-.117.771-.51 1.397-.757 2.037-.509 1.017-1.018 2.036-1.265 3.054-.131.625-.262 1.134-.51 1.774-.26.509-.26 1.15-.508 1.658-.131.51-.378.756-.51 1.265-.13.51-.246.888-.377 1.397s-.378.887-.51 1.396c-.116.247-.116.64-.247.887 0 .13-.13.247-.13.378v.378c0 .131-.131.248-.131.378-.117.262-.117.393-.248.64-.116.248-.116.64-.247.888-.247.756-.64 1.527-.887 2.283-.262.64-.262 1.265-.509 1.905-1.527-.13-3.054.51-4.32.51.117-1.019.626-1.906.51-2.443zM2.08 48.172a1.147 1.147 0 0 1-.155.072.197.197 0 0 0 .155-.072zm.14-.294c-.04.101-.075.22-.14.294.19-.108.19-.213.14-.294z"/></g><g><path fill="#231f20" d="M36.873.676c0 .64.247 1.266.247 2.037.378 0 1.265-.379 1.149.247 0 .378-.756.247-1.15.378 0 .756.132 1.527.248 2.283.378 0 1.396-.378 1.527 0 .131.51-1.774.51-2.036.379-.247-1.658-.378-3.811-.378-5.6.247-.13.887-.13 1.265-.247.248 0 .51-.131.51.13.145.393-.99.263-1.382.393z"/></g><g><path fill="#231f20" d="M40.948.545C40.7.167 40.06.415 39.93.792c-.131.248-.131.64 0 .888.13.378.64.756.887 1.265.509.64.887 1.396.509 2.414-.378.51-1.396.756-1.905 0-.131-.247-.51-1.774.13-1.774.51 0 0 1.658.757 1.658.378 0 .756-.247.756-.756-.13-1.266-1.527-1.775-1.658-3.185 0-.248 0-.51.247-.757.51-.887 1.775-.64 1.775.51 0 .13 0 .508-.248.508-.13 0-.13-.247-.13-.378.029-.262.029-.378-.102-.64z"/></g><g><path fill="#231f20" d="M44.752.667c-.247.247-.756 0-1.018 0 0 1.396 0 2.793-.13 4.203v.51c0 .247 0 .508-.379.508-.247-.247-.13-.64-.13-.887.13-1.396.13-2.923.246-4.32 0 .132-.756 0-.887 0-.13 0-.378-.13-.247-.247 0-.13.378-.13.509-.13h1.018c.393-.146 1.149-.146 1.018.363z"/></g><g><path fill="#231f20" d="M47.18 2.69c0-.248.13-.64.13-.888.13-.247 0-.509.13-.756.116-.378.507-.378.753-.247.26 0 .506.392.506.64 0 .247-.13.509-.13.756 0 .887-.246 1.658-.376 2.414 0 .51 0 1.018-.637.887-.636 0-.636-1.018-.506-1.774 0-.392.13-.64.13-1.033zm1.76 1.905c.131-.64.248-1.28.379-2.036 0-.51.13-1.018.13-1.396 0-.248-.261-.771-.508-.888-.248-.116-1.15-.116-1.397.131-.378.262-.378.888-.509 1.527-.13.757-.509 2.167-.378 2.924 0 .378.262.77.64 1.018.117 0 .117.13.247.13h.248c.13 0 .13.117.13.248.117.131.117.247.248.378.378.771 1.28.902 2.036 1.15 1.658.508 3.694.508 5.6.756 1.148.247 2.283.509 3.432.887.509.262 1.018.393 1.527.64.378.247.887.378 1.265.756.131.13.262.77.64.64.51-.262-.247-1.018-.378-1.15-1.018-.887-2.545-1.395-3.81-1.774-1.018-.261-2.037-.509-3.054-.64-1.15-.116-2.284-.116-3.433-.247-.247 0-.64 0-.887-.13-.509 0-1.018-.248-1.527-.379-.131-.116-.393-.116-.64-.247l-.378-.378c-.131-.131-.247-.378-.378-.51.262-.247.392-.64.756-1.41z"/></g><g><path fill="#231f20" d="M35.734 6.007c-.509.378-.756-.131-1.018-.64a44.65 44.65 0 0 1-1.149-2.545c0 .756.13 1.658.247 2.414 0 .247.248.887-.247.887-.378 0-.378-1.265-.509-1.658-.13-1.018-.13-1.905-.378-2.923v-.509c0-.247.13-.509.378-.247.247.13.378.378.509.64.378 1.018.756 2.036 1.265 3.054 0-.64-.13-1.265-.13-2.167 0-.51-.379-1.905.247-1.774.247.13.247.378.247.756.145 1.41.538 3.054.538 4.712z"/></g><g><path fill="#231f20" d="M50.487.8c.13 0 .13.247.247.378 0 .247 0 .509-.13.64-.132.756-.248 1.658-.38 2.545 0 .378-.13.757-.13 1.018.13.378.51.64.887.64.64-.13.64-1.018.756-1.774.131-.757.248-1.266.379-2.167 0-.378.13-.887.378-.887.247 0 .13.64.13 1.149-.13.887-.247 1.527-.378 2.283-.13.887-.247 1.658-1.018 1.905-.887.247-1.774-.378-1.658-1.396 0-.509.248-1.15.378-1.658.131-.64.131-1.15.248-1.774.029-.277.16-.786.29-.902z"/></g><g><path fill="#231f20" d="M32.683 6.256c-.51.247-.51-.757-.64-1.15-.248-1.017-.248-1.904-.51-2.923 0-.247-.13-.509-.13-.756 0-.13-.131-.509.13-.64.248-.247.379.378.379.51 0 .13 0 .377.13.508.132.64.248 1.018.248 1.658.014 1.15.524 2.167.393 2.793z"/></g><g><path fill="#231f20" d="M29.25 1.937c.246.64.377 1.266.508 1.906.247 0 1.266-.64 1.527-.131.131.509-1.018.509-1.265.64 0 .509.13.887.378 1.396.131.378.378 1.149-.13 1.149-.379 0-.51-1.018-.64-1.396 0-.248 0-.51-.132-.64-.247-1.018-.756-2.415-.756-3.433.378 0 1.018-.378 1.527-.378.247 0 .51 0 .378.378-.13.378-1.149.262-1.396.51z"/></g><g><path fill="#231f20" d="M54.43 2.952c.13.64.13 1.527 0 2.037-.262 0-.393-.117-.64-.248.261-.64.509-1.28.64-1.789zm.145 4.058c.247-.13.247-.509.247-.887 0-.756.131-1.905.131-2.923-.13-.379-.13-.64-.13-.887 0-.379.13-1.004-.248-.757-.64 1.15-1.018 2.545-1.658 3.694-.13.248-.247.495-.378.757-.13.262-.13.64.247.509 0 0 .131 0 .131-.131.116-.131.116-.248.247-.378.262-.378.378-.64.51-.887.247.13.508.247.756.378 0 .378-.379 1.658.145 1.512z"/></g><g><path fill="#231f20" d="M56.974 2.067c-.131 1.658-.757 3.185-1.018 4.697.247.248 1.396.248 1.265.757 0 .509-.756 0-.887 0-.378-.131-.887-.131-1.018-.379-.131-.247.13-.887.247-1.265.247-1.149.756-2.792 1.018-3.694.13.015.262-.247.393-.116z"/></g><g><path fill="#231f20" d="M24.805 2.829c.13.64.378 1.265.509 1.905l.756-.247c.13 0 .247-.131.378-.131.247 0 .378.247.131.509-.247.13-.509.247-.756.247l-.378.13c.13.64.509 1.266.64 1.906.64-.131 1.148-.509 1.774-.378.247.378-.378.509-.756.64-.51.13-1.15.509-1.397 0-.13-.248-.247-.757-.378-1.15-.378-1.148-.887-2.544-1.018-3.81.378-.13 1.265-.64 1.658-.509.13 0 .247.131.247.131.117.64-1.163.64-1.41.757z"/></g><g><path fill="#231f20" d="M59.386 2.71c.247.13.13.509 0 .64-.248 1.149-.51 2.283-.887 3.432-.131.379-.248 1.396-.757 1.15-.247-.379.131-.757.248-1.266.247-.756.509-1.774.756-2.676.13-.524.262-1.033.64-1.28z"/></g><g><path fill="#231f20" d="M61.542 3.837c-.131.888-.64 1.658-.888 2.415-.13.378-.13.756-.247 1.149-.13.247-.247 1.018-.509 1.018-.509 0-.13-.887 0-1.15.378-1.265.887-2.414 1.266-3.563 0 0-.51-.247-.64-.247-.131 0-.131-.13-.248-.13 0 0-.13-.379 0-.379.378 0 .757.13 1.397.378.378.131.887.248.887.51.13.64-.757.13-1.018 0z"/></g><g><path fill="#231f20" d="M24.424 7.024c.131.13.131.378.248.509.13.247.247.64-.131.64-.378.13-.378-.51-.51-.887-.13-.379-.508-1.018-.508-1.396-.379.13-.64.247-1.018.247l.378 1.149c.13.247.13.378.247.64 0 .247.247.64-.13.64-.248 0-.379-.379-.379-.64-.13-.51-.509-1.15-.64-1.775-.247-.64-.378-1.265-.509-1.905 0-.13-.247-.509-.13-.64.13-.378.508.247.508.378.131.131.131.378.131.51.13.378.378.756.378 1.148.378 0 .756-.247 1.149-.378-.13-.509-.247-.756-.378-1.396-.13-.378-.378-1.018 0-1.018.247 0 .378.509.378.64.131.247.131.64.247.887.131.378.248.887.379 1.265.13.248.13.379.247.64-.087.48-.087.611.043.742z"/></g><g><path fill="#231f20" d="M63.065 3.976c.13 0 .13 0 0 0 .13.247 0 .64.13.756 0 .51 0 .888.131 1.396.248-.247.757-.509 1.15-.756.13-.13.247-.378.377-.509.131-.13.378-.247.51-.13.13.246-.248.64-.379.755-.509.51-1.265 1.019-1.774 1.658-.131.51-.378 1.266-.64 1.906-.13.247-.13.756-.64.509 0-.64.378-1.396.64-2.037.13-.509.247-.887.247-1.774 0-.247-.13-.64-.13-.887s0-.64.13-.756c.131-.262.248-.262.248-.131z"/></g><g><path fill="#231f20" d="M19.714 4.74c.378.888.887 2.284 1.396 3.433.13.378.64 1.149.13 1.265-.377.131-.508-.64-.64-1.018-.508-1.149-.886-2.283-1.265-3.432-.378.131-.64.378-1.018.247-.13-.378.51-.509.888-.756.378-.13.887-.509 1.149-.509.13 0 .378 0 .378.247-.131.262-.756.262-1.018.524z"/></g><g><path fill="#231f20" d="M37.772 19.36h2.283c0 .247.131.509 0 .756-.13.131-.509 0-.756 0v4.582c-.13.13-.64.13-.756 0V20h-.888c-.014 0-.145-.51.117-.64z"/></g><g><path fill="#231f20" d="M42.476 19.49v5.338c-.131.131-.51 0-.757 0-.13-.64 0-1.658 0-2.414-.13-.13-.378 0-.509 0 0 .756.131 1.774 0 2.414-.247 0-.64.131-.756-.13-.13-1.658 0-3.564.131-5.207.247-.131.51 0 .756 0v2.036c.131.13.378 0 .51 0 0-.64-.132-1.527 0-2.167.116.13.377.13.625.13z"/></g><g><path fill="#231f20" d="M45.147 19.606c0 .13.13.51 0 .64-.247.13-.64 0-.887 0-.13.378 0 1.018 0 1.396h.887c0 .131.13.51 0 .64-.13.131-.509 0-.756.131-.131.51 0 1.018 0 1.527h.887c0 .131.13.378 0 .64-.64.131-1.149.131-1.774 0 0-1.149-.131-2.283-.131-3.432 0-.509-.131-1.149.13-1.658.233 0 1.135 0 1.644.116z"/></g><g><path fill="#231f20" d="M43.867 44.392v2.167c0 .378 0 .77-.13 1.018 0 .262 0 .509-.379.509-.116 0-.247 0-.247-.131-.131-.378-.131-.64-.131-1.018v-.756c0-.64-.13-1.659 0-2.037.13-.247.262-.378.509-.247 0 0 .13 0 .13.131 0 0 0 .13.248.364zm-1.905.043c0 .887-.131 3.433.247 3.81.131.117.64.248.887.248.378 0 .771-.262 1.018-.509.262-.393.131-.77.131-1.149v-.64c0-.64.131-1.41 0-2.167-.13-.509-.378-1.018-1.018-.887-.756.13-1.003.64-1.265 1.294z"/></g><g><path fill="#231f20" d="M41.32 45.307c-.247 0-.509 0-.64-.13-.13-.132-.13-.379-.13-.51 0-.247.13-.64-.248-.756-.378-.13-.509.378-.509.64v1.905c0 .51-.13 1.266.247 1.396.757.248.378-.887.64-1.396h.64c.131.64.131 1.658-.247 1.905-.51.51-1.658.248-1.905-.247-.131-.13-.131-.378-.131-.64-.131-1.149.13-2.792.13-3.694.248-.64.888-.756 1.528-.64.13 0 .247.13.378.247.13.131.247.247.247.378v.51c.131.014 0 1.032 0 1.032z"/></g><g><path fill="#231f20" d="M23.784 44.91c-.13 0-.509.13-.509 0-.13-.248.131-.757-.13-.888-.757-.378-.757.64-.379 1.15.378.508 1.15 1.148 1.15 2.036 0 .64-.132 1.527-1.019 1.527-1.018 0-1.018-1.15-.887-1.906.13 0 .378-.13.64 0 .13.379-.131 1.15.378 1.15.247-.132.247-.64.247-.888 0-.13-.13-.378-.247-.509-.247-.509-.887-1.018-1.018-1.396-.13-.509 0-1.265.247-1.527.247-.247 1.018-.378 1.527-.247.131.101.131.988 0 1.497z"/></g><g><path fill="#231f20" d="M25.18 43.386c.13.509 0 1.149 0 1.905s-.132 1.527 0 2.036c0 .378.246.887.756.64.247-.64.13-1.396.13-2.283V43.4c.131-.13.51-.13.64 0v2.793c0 .64.131 1.396-.13 2.036-.248.64-1.397.756-1.906.247-.13-.247-.247-.756-.378-1.265v-2.036c0-.64-.131-1.658.247-1.775.262-.13.51-.13.64-.014z"/></g><g><path fill="#231f20" d="M35.348 43.388c.247.51.378 1.15.64 1.658.247-.509.509-1.018.64-1.658.13 0 .509-.13.64 0 0 .378-.247.887-.378 1.266-.131.378-.51.887-.51 1.265-.13.887.248 1.774 0 2.676h-.64v-2.167-.51c0-.246-.247-.508-.247-.64-.13-.246-.13-.508-.247-.755-.13-.378-.378-.64-.247-1.15-.16-.101.102.015.35.015z"/></g><g><path fill="#231f20" d="M48.952 46.95v.887c-.13 0-.504.13-.633 0v-1.658c0-.247.374 0 .504 0 .129 0 .129.13.129.13.13.262 0 .51 0 .64zm-.144-2.924c.259.26.13.766.13 1.142 0 .245-.116.375-.245.375h-.374v-1.648c.129 0 .258.13.489.13zm-1.25-.756c-.13 1.774-.13 3.68 0 5.469.51 0 1.28.13 1.658 0 .625-.248.378-1.135.378-1.775-.116-.509 0-.887-.247-1.018.116-.262.247-.509.247-.64 0-.509 0-1.018-.13-1.396-.131-.51-.379-.64-.888-.64h-1.018s0 .116 0 0z"/></g><g><path fill="#231f20" d="M51.878 43.909v1.634c0 .13-.378.13-.51.13v-1.649c.132 0 .51-.13.51-.115zm1.033.116c-.131-.756-1.411-.64-2.167-.51-.262 1.528-.131 3.433-.131 5.091h.887c0-.756-.131-1.643 0-2.283h.378c.262.64-.117 1.774.13 2.414.248-.13.64 0 .888-.13-.378-.64 0-2.298-.378-2.546.247-.378.378-1.527.393-2.036z"/></g><g><path fill="#231f20" d="M60.4 44.14c.262 1.019 0 2.546.13 3.695h-.639v-3.81c.13.13.509 0 .51.116zm.756 3.957v-1.018-1.906-.887c0-.13 0-.509-.13-.64-.248-.378-1.135-.378-1.775-.247-.131 1.149-.131 2.676-.131 3.941 0 .379 0 .888.13 1.266.641.13 1.775.247 1.906-.51z"/></g><g><path fill="#231f20" d="M31.775 45.294c-.244.131-.373.131-.747.131V44.16h.632c.244.247.13.756.115 1.134zm.387.771c.379-.262.379-1.527.248-2.036 0 0-.117-.378-.248-.51-.247-.246-1.527 0-1.774 0a33.039 33.039 0 0 0 0 5.091c.131.131.51.131.64 0 .131-.756 0-1.658.131-2.414.378 0 .756.116 1.003-.13z"/></g><g><path fill="#231f20" d="M33.827 43.385c.131 1.265 0 2.923.131 4.32.247 0 .887-.132 1.15.13v.756c-.51 0-1.397.131-1.775-.13 0-1.659-.131-3.564.13-5.091-.029.015.233.015.364.015z"/></g><g><path fill="#231f20" d="M54.31 45.176c.118.512.251 1.023.251 1.534h-.517c.118-.511.118-1.022.266-1.534zm-.393-1.916c-.13 0-.13.13-.13.13-.379 1.644-.626 3.55-.757 5.208h.64c.247-.262.247-.771.247-1.15.247 0 .626-.13.756 0 0 .262.131.64.131 1.019.131.13.393.13.64.13.117-.247-.13-.64-.13-.887 0-.262 0-.64-.131-1.018 0-.393-.117-.77-.248-1.149-.116-.378-.247-.887-.247-1.265 0-.131 0-.887-.13-.887-.262 0-.393 0-.64-.131z"/></g><g><path fill="#231f20" d="M58.368 43.518v2.676c0 .887.13 1.905-.131 2.545-.13 0-.509 0-.756-.13-.131-.887-.51-1.906-.757-2.793-.13.887.131 1.905 0 2.923-.247.131-.64 0-.756-.13-.13-1.528 0-3.564 0-5.09h.756c.379.755.757 1.657.888 2.675.13-.756-.131-1.905.13-2.676.117-.13.248-.13.626 0z"/></g><g><path fill="#231f20" d="M28.232 44.008c.26 0 .505 0 .635.13.13.394.13.772.13 1.15-.13.13-.39.13-.635.13 0-.377 0-.886-.13-1.41zm-.512-.625a34.839 34.839 0 0 0-.015 5.075c.131.131.51.131.64.131.131-.625 0-1.643.131-2.283.393 0 .902.13 1.15-.247.261-.378 0-2.415-.248-2.546-.509-.378-1.018 0-1.658-.13 0 0 0 .13 0 0z"/></g><g><path fill="#231f20" d="M45.52 47.595c0 .378.132.887-.13 1.018s-.509 0-.64-.13v-1.019c.262-.13.509 0 .77.131z"/></g><g><path fill="#231f20" d="M43.74 53.057c.248-.64-.377-.887-.755-1.15-3.302-.377-2.676 3.811-.248 3.942 1.019 0 2.167-.509 3.185-.887.248-.13.757-.247 1.019 0 .247.378-.248.756-.131.887.756.248 1.658-.887 2.414-.756.378 0 .887.509.51 1.018h25.175c.378 0 1.396-.13 1.527.131.13.509-1.265.247-1.658.247H5.985c-.378 0-1.775.131-1.658-.247 0-.247 1.149-.13 1.396-.13h24.928c0-.248-.378-.51-.13-.888 1.265-.378 2.036.64 3.054.64.247-.378-.64-.509-.378-1.018.247-.51 1.527.509 1.905.64.756.247 1.905.509 2.792.247 1.15-.247 1.906-1.658 1.397-2.792-.131-.379-.64-.888-1.266-1.019-.756 0-1.658.379-1.527 1.266.64 0 .64-.64 1.265-.64 1.15 0 1.15 1.658.131 2.036-1.265.378-2.167-.887-1.905-1.905.247-.756 1.527-1.396 2.545-1.018.51.13.887.64 1.018 1.018.64 1.396-.378 2.545-1.265 3.563.887-.13 1.905 0 2.923 0-.509-.887-1.527-2.414-.756-3.694.247-.509.887-.887 1.658-1.018.509 0 1.396 0 1.774.378 1.018 1.018 0 2.923-1.265 2.676-1.018-.13-1.265-2.036 0-2.036.494.13.742.378 1.12.509z"/></g><g><path fill="#231f20" d="M49.716 61.715c.136.115.136.504.136.748h-.257c0-.374.121-.503.121-.748zm-.727-2.433c-.509 1.658-.77 3.316-1.149 5.09.247.131 1.018.131 1.265.131.117-.378.117-.77.248-1.018.247 0 .625-.13.756 0 0 .247 0 .64.13.887h1.397a228.19 228.19 0 0 1-1.149-5.09c-.262-.117-1.018 0-1.498 0z"/></g><g><path fill="#231f20" d="M47.05 59.42c0 1.657.13 3.693 0 5.09-.379 0-.757 0-1.018-.131-.131-.756 0-1.527 0-2.284-.248.757-.51 1.658-.757 2.284-.247.13-.64 0-1.018 0-.378-.64-.509-1.397-.64-2.037-.13.64 0 1.528-.13 1.906-.248.13-.757.13-1.019 0 0-1.527-.13-3.564 0-4.96.378-.13 1.018 0 1.396 0 .379.756.51 1.905.887 2.676.379-.756.51-1.774.888-2.676.393 0 .902 0 1.41.131z"/></g><g><path fill="#231f20" d="M23.519 59.41v1.018h-.757c-.247 1.396 0 2.545-.13 3.941h-1.266c-.13-1.148 0-2.675 0-3.94-.247-.132-.509 0-1.018-.132-.13-.247 0-.64 0-.887h3.17z"/></g><g><path fill="#231f20" d="M34.325 60.434c.248.64.248 2.17 0 2.927-.116.131-.625.131-.756.131v-3.058h.756zm-1.774-1.016c-.13 1.658-.13 3.432-.131 4.96 1.018.116 2.938.377 3.185-.64-.247-1.775.51-3.811-.887-4.32-.509-.131-1.527.13-2.167 0 0 0-.13 0 0 0z"/></g><g><path fill="#231f20" d="M59.897 59.412c-.247.887-.756 1.527-1.149 2.283.378 1.15 1.149 1.658 1.658 2.676-.64 0-1.15.131-1.775 0-.247-.378-.64-.887-.887-1.265-.13.378 0 1.018-.13 1.265h-1.266c-.13-1.527-.13-3.432 0-5.09h1.266c.13.378 0 .887 0 1.265.247-.509.509-.887.887-1.396.509.262 1.018.262 1.396.262z"/></g><g><path fill="#231f20" d="M25.294 60.297c.132.131.383 0 .515.131.133.247.133.509.133.756-.133.131-.265.131-.516.131 0-.378 0-.64-.132-1.018zm1.647-.378c-.379-.887-1.906-.509-2.793-.509 0 1.396-.13 3.302 0 4.829.393.13.902 0 1.15 0 .13-.64 0-1.527.13-2.168.887 0 .262 1.659.64 2.168.378.13 1.15.13 1.527 0-.509-.64 0-2.168-.756-2.546.378-.247.51-1.265.102-1.774z"/></g><g><path fill="#231f20" d="M53.408 60.297c.133.131.383 0 .516.131.132.247.132.509.132.756-.132.131-.265.131-.515.131 0-.378 0-.64-.133-1.018zm1.633-.378c-.379-.887-1.906-.509-2.793-.509 0 1.396-.13 3.302 0 4.829.393.13.902 0 1.149 0 .13-.64 0-1.527.13-2.168.888 0 .263 1.659.64 2.168.379.13 1.15.13 1.528 0-.509-.64 0-2.168-.756-2.546.378-.247.509-1.265.102-1.774z"/></g><g><path fill="#231f20" d="M29.745 61.7a1.2 1.2 0 0 0 .12.493h-.237c.083-.16.111-.328.117-.492zm-.005-.254c.005.084.008.169.005.255-.005-.086-.005-.171-.005-.255zm-.611-2.036c-.51 1.527-.902 3.302-1.149 4.829h1.396c-.116-.393 0-.771.131-1.15.262 0 .51-.13.64 0 .131.393.247.772.378 1.15.51 0 1.018.13 1.266 0-.131-.757-.51-1.528-.64-2.415-.262-.887-.262-1.774-.64-2.414-.51 0-1.018.13-1.382 0z"/></g><g><path fill="#231f20" d="M76.303 66.786c0 .64-.887.378-1.527.378H69.06c-2.036 0-4.072-.13-6.224 0-3.942.131-11.577-.13-16.784 0 0 .248.247.51.13.757-.247.64-1.396.13-1.905-.131-.247 1.018-1.018.13-1.657-.131-.379-.131-.888-.378-1.397-.247-.509.13-.887 1.149-.509 1.658.248.378 1.15.64 1.396-.131-.247-.131-.509.378-.887.13-.509-.378 0-.887.248-.887.378-.13 1.018.131 1.018.51.378 1.265-1.527 1.527-2.036.886-.64-.64-.131-1.905.509-2.414h-1.658c.13.51.64.757.64 1.265.13 1.019-.757 1.658-1.659 1.528-.64-.131-.887-1.019-.509-1.528.379-.378 1.528-.378 1.397.379-.131.64-.757.247-1.15.378.248.64 1.397.247 1.397-.378.13-.51-.378-1.15-.756-1.266-1.019-.247-1.658 1.266-2.546.757-.13-.131-.247-.248-.247-.51-.378.51-2.283.51-1.527-.64H5.736c-.378 0-1.658.131-1.774-.13-.131-.378.887-.248 1.265-.248 3.81-.247 7.752 0 11.446 0H74.907c.625-.116 1.134-.232 1.396.015z"/></g><g><path fill="#231f20" d="M39.172 59.418c.131.248.131.887 0 1.15-.247 0-.756.13-1.265 0v.755c.378 0 .887-.13 1.265 0 .131.248.131.757 0 1.018-.378.131-.756.131-1.265.131-.13.248 0 .64 0 .888h1.265c.131.247.131.756 0 1.018-.64.13-1.658 0-2.414.13a33.039 33.039 0 0 1 0-5.09c.756-.13 1.774-.13 2.414 0z"/></g></g></g></svg>
