<svg xmlns="http://www.w3.org/2000/svg" width="50" height="16" viewBox="0 0 50 16"><g><g><g><path fill="#00579f" d="M21.4 15.752h-4L19.902.28h4z"/></g><g><path fill="#00579f" d="M35.9.659A9.859 9.859 0 0 0 32.313 0c-3.95 0-6.732 2.107-6.75 5.119-.032 2.222 1.992 3.456 3.507 4.197 1.547.757 2.074 1.251 2.074 1.926-.016 1.037-1.251 1.515-2.403 1.515-1.597 0-2.453-.247-3.753-.823l-.527-.248-.56 3.473c.938.428 2.667.807 4.462.824 4.197 0 6.93-2.074 6.962-5.284.016-1.761-1.053-3.11-3.358-4.214-1.399-.707-2.256-1.185-2.256-1.91.017-.658.725-1.332 2.305-1.332 1.3-.033 2.256.28 2.98.592l.361.165L35.9.659z"/></g><g><path fill="#00579f" d="M46.158.28l3.227 15.472h-3.704s-.363-1.778-.477-2.321h-5.137l-.84 2.32H35.03l5.942-14.187C41.384.56 42.11.28 43.063.28zm-4.939 9.99h3.316c-.164-.773-.92-4.476-.92-4.476l-.278-1.333c-.197.576-.542 1.514-.525 1.48 0 0-1.264 3.44-1.593 4.33z"/></g><g><path fill="#00579f" d="M14.057.28l-3.918 10.55-.428-2.14C8.987 6.223 6.715 3.54 4.18 2.206l3.589 13.53h4.23L18.287.28h-4.23z"/></g><g><path fill="#faa61a" d="M6.502.28H.066L0 .593C5.02 1.877 8.346 4.97 9.712 8.69l-1.399-7.11C8.083.592 7.375.313 6.503.28z"/></g></g></g></svg>