<svg xmlns="http://www.w3.org/2000/svg" width="38" height="30" viewBox="0 0 38 30"><g><g><g transform="matrix(1 0 0 -1 0 38)"><g><path fill="#0099df" d="M36.947 18.41v.633h-.195v.128h.496v-.128h-.194v-.633zm.955 0v.576l-.164-.497h-.112l-.164.496v-.575h-.108v.763h.153l.175-.524.175.524h.152v-.763z"/></g></g><g><path fill="#6c6bbd" d="M24.4 21.083H14.26V2.86H24.4z"/></g><g transform="matrix(1 0 0 -1 0 24)"><g><path fill="#eb001b" d="M14.913 11.97c0 3.696 1.731 6.989 4.426 9.11a11.538 11.538 0 0 1-7.161 2.478C5.778 23.558.59 18.37.59 11.97.59 5.57 5.778.38 12.178.38c2.703 0 5.19.926 7.161 2.478a11.57 11.57 0 0 0-4.426 9.111"/></g></g><g transform="matrix(1 0 0 -1 0 24)"><g><path fill="#0099df" d="M38.08 11.97C38.08 5.568 32.892.38 26.492.38c-2.703 0-5.19.926-7.162 2.478a11.568 11.568 0 0 1 4.427 9.111c0 3.697-1.731 6.99-4.427 9.112a11.542 11.542 0 0 0 7.162 2.477c6.4 0 11.588-5.188 11.588-11.589"/></g></g><g transform="matrix(1 0 0 -1 0 53)"><g><path fill="#231f20" d="M11.59 25.288v1.931c0 .727-.464 1.217-1.21 1.223-.393.007-.8-.115-1.082-.547-.213.341-.548.547-1.018.547-.328 0-.65-.096-.901-.457v.38H6.71v-3.077h.676v1.706c0 .534.296.818.753.818.444 0 .67-.29.67-.812v-1.712h.675v1.706c0 .534.31.818.753.818.458 0 .676-.29.676-.812v-1.712zm3.77 3.077h-.668v-.374c-.213.277-.534.451-.972.451-.863 0-1.538-.675-1.538-1.616 0-.939.675-1.615 1.538-1.615.438 0 .759.174.972.45v-.373h.669zm-2.49-1.539c0 .541.354.986.933.986.554 0 .927-.426.927-.986s-.373-.984-.927-.984c-.579 0-.933.444-.933.984m17.4 1.616c-.239 0-.46-.041-.663-.124a1.584 1.584 0 0 1-.872-.856 1.637 1.637 0 0 1-.126-.646c0-.232.042-.447.126-.645.084-.198.2-.37.347-.515.147-.145.322-.259.525-.342.203-.083.424-.124.663-.124.239 0 .46.041.663.124a1.568 1.568 0 0 1 .876.857c.084.198.126.413.126.645 0 .232-.042.447-.126.646a1.565 1.565 0 0 1-.876.856 1.733 1.733 0 0 1-.663.124m0-.636c.138 0 .266-.024.384-.072a.92.92 0 0 0 .513-.516c.05-.122.074-.256.074-.402 0-.146-.024-.28-.074-.401a.937.937 0 0 0-.513-.517.997.997 0 0 0-.384-.072 1 1 0 0 0-.384.072.921.921 0 0 0-.51.517c-.05.121-.073.255-.073.401 0 .146.024.28.073.402a.921.921 0 0 0 .51.517c.119.047.246.071.384.071m-7.976.314c-.32.212-.763.322-1.25.322-.776 0-1.277-.373-1.277-.985 0-.502.372-.81 1.059-.908l.314-.045c.366-.05.539-.148.539-.32 0-.24-.244-.374-.699-.374-.462 0-.796.148-1.02.322l-.315-.522c.366-.27.828-.4 1.328-.4.885 0 1.398.42 1.398 1.005 0 .54-.404.824-1.07.92l-.315.046c-.289.038-.52.096-.52.302 0 .225.219.361.584.361.392 0 .77-.148.956-.265zm-3.221-1.294c-.007.96-.6 1.616-1.462 1.616-.901 0-1.532-.656-1.532-1.616 0-.977.657-1.615 1.578-1.615.463 0 .888.116 1.261.431l-.328.496a1.463 1.463 0 0 0-.895-.322c-.431 0-.824.2-.92.753h2.285c.006.084.013.168.013.257m-2.292.27c.071.44.34.738.818.738.43 0 .708-.267.778-.737zm8.568 1.269h-1.094v.933h-.676v-.933h-.625v-.612h.625V26.35c0-.714.276-1.14 1.069-1.14.29 0 .624.091.836.24l-.193.572a1.234 1.234 0 0 0-.592-.174c-.335 0-.444.206-.444.515v1.39h1.094zm2.474.077c-.386 0-.637-.18-.811-.45v.373h-.663v-3.077h.67v1.726c0 .508.218.79.656.79.136 0 .277-.018.419-.076l.206.63a1.428 1.428 0 0 1-.477.084"/></g></g><g transform="matrix(1 0 0 -1 0 58)"><g><path fill="#231f20" d="M32.921 29.797a.527.527 0 0 1-.531-.518.496.496 0 0 1 .154-.365.525.525 0 0 1 .377-.154.54.54 0 0 1 .486.318.496.496 0 0 1 0 .403.509.509 0 0 1-.28.275.51.51 0 0 1-.206.041m0-.922a.407.407 0 0 0-.289.117.38.38 0 0 0-.084.13.39.39 0 0 0-.032.157c0 .056.01.109.032.157a.392.392 0 0 0 .373.245.38.38 0 0 0 .157-.031.386.386 0 0 0 .213-.214.412.412 0 0 0-.086-.443.41.41 0 0 0-.284-.118m-.191.646v-.481h.103v.18h.047l.146-.18h.123l-.158.181a.199.199 0 0 1 .114.048.13.13 0 0 1 .04.099.137.137 0 0 1-.05.112.22.22 0 0 1-.142.041zm.221-.09a.107.107 0 0 0 .064-.016.053.053 0 0 0 .025-.047.055.055 0 0 0-.025-.05.117.117 0 0 0-.064-.015h-.118v.128z"/></g></g></g></g></svg>