<svg xmlns="http://www.w3.org/2000/svg" xmlns:xlink="http://www.w3.org/1999/xlink"><symbol id="basket" viewBox="0 0 17 20"><g><g><path fill="#2b2d31" d="M14.904 7.69l-.03 10.71H1.6l.03-10.71h2.269l.032.043h1.6l-.032-.042h5.536l.032.042h1.6l-.032-.042zM5.499 4.364a2.766 2.766 0 0 1 2.763-2.768 2.766 2.766 0 0 1 2.763 2.768v1.73H5.499zM8.267 0a4.37 4.37 0 0 0-4.368 4.363v1.73H.029L0 20h16.475l.029-13.91h-3.87V4.364A4.37 4.37 0 0 0 8.268 0z"/></g></g></symbol><symbol id="close-red" viewBox="0 0 24 24"><g><g><path fill="#d5d5d5" d="M22.627 0l1.415 1.414-10.607 10.607 10.607 10.606-1.415 1.415-10.606-10.607L1.414 24.042 0 22.627l10.607-10.606L0 1.414 1.414 0l10.607 10.607z"/></g></g></symbol><symbol id="close" viewBox="0 0 24 24"><g><g><path fill="#d5d5d5" d="M22.627 0l1.415 1.414-10.607 10.607 10.607 10.606-1.415 1.415-10.606-10.607L1.414 24.042 0 22.627l10.607-10.606L0 1.414 1.414 0l10.607 10.607z"/></g></g></symbol><symbol id="courier" viewBox="0 0 24 24"><g><g><path fill="#2b2d31" d="M9.358 9.94a.443.443 0 0 1-.021-.134v-7.09c0-.048.007-.095.02-.14l.016-.043c.014-.028.024-.057.04-.086l.03-.041a.682.682 0 0 1 .058-.066l.045-.036.028-.026.045-.021.028-.018L14.604.045a.522.522 0 0 1 .423 0l4.957 2.194.028.018a.395.395 0 0 1 .047.023l.029.024.042.036c.02.02.04.043.057.066l.031.044a.487.487 0 0 1 .04.083.432.432 0 0 1 .036.183v7.088c0 .045-.007.09-.018.133v.034a.566.566 0 0 1-.05.107.618.618 0 0 1-.086.099l-.026.018a.48.48 0 0 1-.104.068l-4.957 2.191a.659.659 0 0 1-.094.031.707.707 0 0 1-.107 0 .673.673 0 0 1-.104 0h-.013a.583.583 0 0 1-.09-.028L9.69 10.265a.55.55 0 0 1-.104-.067l-.026-.019a.784.784 0 0 1-.086-.099.58.58 0 0 1-.053-.107zm1.077-.473L14.35 11.2V5.272l-3.914-1.75zm8.87-5.963l-3.913 1.714v5.981l3.913-1.732zm-8.108-.785l3.621 1.622 3.705-1.628-3.653-1.62zM0 22.435v-6.783c0-.864.7-1.565 1.565-1.565h3.653c.44.004.859.193 1.153.522.845-.522 2.799-1.469 4.805-.522.52.261.916.464 1.229.634 1.085.584 1.31.697 3.509.436a.522.522 0 0 1 .211.015c.474.14.87.47 1.093.91.07.157.115.323.13.494l4.305-2.228a1.61 1.61 0 0 1 1.795.17c.267.225.45.532.522.873a1.646 1.646 0 0 1-.751 1.714l-6.783 4.127c-.85.52-1.827.798-2.823.801h-6.83v.402c0 .864-.7 1.565-1.565 1.565H1.565C.701 24 0 23.3 0 22.435zm6.783-6.858v5.42h6.83a4.394 4.394 0 0 0 2.283-.65l6.8-4.134a.592.592 0 0 0 .262-.605.522.522 0 0 0-.186-.297.564.564 0 0 0-.641-.047l-5.192 2.705c-.522.41-1.78 1.192-4.174 1.192a.522.522 0 1 1 0-1.044c2.027 0 3.065-.61 3.449-.907a.89.89 0 0 0 .052-.686.715.715 0 0 0-.35-.316c-2.316.276-2.755.104-4.004-.569-.321-.172-.686-.37-1.182-.605-1.672-.793-3.386.17-3.947.543zm-5.74 6.858c0 .288.234.522.522.522h3.653a.522.522 0 0 0 .521-.522v-6.783a.522.522 0 0 0-.521-.521H1.565a.522.522 0 0 0-.521.521z"/></g></g></symbol><symbol id="disabled" viewBox="0 0 167.751 167.751">
<path fill="#F95759" d="M0,83.875c0,46.249,37.626,83.875,83.875,83.875s83.875-37.626,83.875-83.875S130.125,0,83.875,0S0,37.626,0,83.875z
	 M83.875,152.751C45.897,152.751,15,121.854,15,83.875c0-16.292,5.698-31.272,15.191-43.078l96.762,96.762
	C115.147,147.052,100.168,152.751,83.875,152.751z M152.75,83.875c0,16.292-5.698,31.272-15.19,43.078L40.797,30.191
	C52.603,20.698,67.583,15,83.875,15C121.853,15,152.75,45.897,152.75,83.875z"/>
</symbol><symbol id="facebook" viewBox="0 0 8 16"><g><g><path fill="#2b2d31" d="M5.193 16V8.701h2.36l.352-2.842H5.193V4.042c0-.822.22-1.385 1.356-1.385H8V.111C7.75.074 6.888 0 5.888 0c-2.093 0-3.52 1.329-3.52 3.764v2.1H0v2.844h2.367V16z"/></g></g></symbol><symbol id="insta" viewBox="0 0 16 16"><g><g><path fill="#2b2d31" d="M11.308 3.728a.958.958 0 1 1 1.916 0 .958.958 0 0 1-1.916 0zM12.105 8a4.114 4.114 0 0 1-4.111 4.111A4.114 4.114 0 0 1 3.882 8a4.114 4.114 0 0 1 4.112-4.111A4.114 4.114 0 0 1 12.105 8zm-1.44 0a2.672 2.672 0 1 0-2.67 2.67c1.47 0 2.67-1.199 2.67-2.67zm5.286-3.301c.043.853.05 1.125.05 3.301s-.013 2.448-.05 3.302c-.037.847-.173 1.434-.371 1.94a3.91 3.91 0 0 1-.921 1.417 3.91 3.91 0 0 1-1.416.92c-.507.199-1.088.335-1.941.372-.854.043-1.126.05-3.302.05s-2.448-.013-3.301-.05c-.847-.037-1.435-.173-1.942-.371a3.91 3.91 0 0 1-1.416-.921 3.91 3.91 0 0 1-.92-1.416c-.199-.507-.335-1.088-.372-1.941C.006 10.448 0 10.176 0 8s.013-2.448.05-3.301c.037-.847.173-1.435.371-1.942a3.91 3.91 0 0 1 .921-1.416 3.91 3.91 0 0 1 1.416-.92C3.264.221 3.845.085 4.7.048 5.552.006 5.824 0 8 0s2.448.013 3.302.05c.847.037 1.434.173 1.94.371.526.204.972.476 1.417.921.445.446.717.89.92 1.416.199.507.335 1.088.372 1.942zM14.56 8c0-2.133-.013-2.386-.05-3.233-.037-.78-.167-1.2-.278-1.484a2.505 2.505 0 0 0-.6-.921 2.478 2.478 0 0 0-.92-.6c-.28-.111-.706-.241-1.485-.278-.84-.044-1.1-.05-3.233-.05s-2.387.013-3.234.05c-.779.037-1.199.167-1.483.278a2.505 2.505 0 0 0-.922.6c-.278.278-.457.55-.6.92-.11.279-.24.706-.278 1.485-.043.84-.049 1.1-.049 3.233s.012 2.387.05 3.234c.037.779.166 1.199.278 1.483.148.377.321.643.6.922.278.278.55.457.92.6.279.11.705.24 1.484.277.841.044 1.095.05 3.234.05 2.139 0 2.386-.012 3.233-.05.78-.037 1.2-.166 1.484-.278.377-.148.643-.321.921-.6.279-.278.458-.55.6-.92.111-.279.241-.705.278-1.484.037-.841.05-1.101.05-3.234z"/></g></g></symbol><symbol id="location" viewBox="0 0 17 24"><g><g><path fill="#2b2d31" d="M5.203 11.09A.496.496 0 0 1 5.07 11a.464.464 0 0 1-.088-.098.88.88 0 0 1-.052-.112v-.032a.477.477 0 0 1-.02-.135V6.595a.5.5 0 0 1 .02-.141l.016-.042a.439.439 0 0 1 .07-.128.485.485 0 0 1 .06-.067l.041-.034.029-.026.046-.024.029-.018L8.077 4.87a.501.501 0 0 1 .415 0l2.856 1.245.028.018.05.026.028.024.042.034a.715.715 0 0 1 .085.11c.017.026.03.055.042.085l.016.042a.5.5 0 0 1 .02.14v4.042a.477.477 0 0 1-.02.135v.032a.88.88 0 0 1-.052.112.464.464 0 0 1-.115.12.496.496 0 0 1-.106.068L8.51 12.347a.517.517 0 0 1-.41 0zm.768-.81l1.817.783v-2.87L5.971 7.39zm4.673-2.892l-1.817.782v2.893l1.817-.782zm-3.894-.79l1.54.675 1.575-.68-1.557-.676zM4.323 18.098C2.123 15.104 0 10.912 0 8.348 0 3.738 3.72 0 8.308 0c4.588 0 8.307 3.737 8.307 8.348 0 2.846-2.375 6.754-3.403 8.3-.11.165-.49.736-1.01 1.435 2.78.517 4.413 1.532 4.413 2.787 0 2.055-4.18 3.13-8.307 3.13C4.18 24 0 22.925 0 20.87c0-1.237 1.602-2.25 4.323-2.77zM8.308 1.043c-4.015 0-7.27 3.27-7.27 7.305 0 4.213 5.91 12.26 7.27 12.26 1.137-.106 7.269-8.024 7.269-12.26 0-4.034-3.255-7.305-7.27-7.305zM1.038 20.87c0 .85 2.833 2.087 7.27 2.087 4.437 0 7.269-1.237 7.269-2.087 0-.522-1.275-1.417-4.089-1.85-1.046 1.297-2.329 2.632-3.18 2.632-.78 0-1.997-1.043-3.266-2.609-2.602.405-4.004 1.234-4.004 1.827zm11.676-7.834a6.216 6.216 0 0 1-4.406 1.834c-3.441 0-6.231-2.804-6.231-6.261 0-3.458 2.79-6.261 6.23-6.261 3.442 0 6.231 2.803 6.231 6.26 0 1.661-.656 3.254-1.824 4.428zM3.115 8.609a5.23 5.23 0 0 0 1.521 3.689 5.18 5.18 0 0 0 3.672 1.528c2.867 0 5.192-2.336 5.192-5.217 0-2.882-2.325-5.218-5.192-5.218-2.868 0-5.193 2.336-5.193 5.218z"/></g></g></symbol><symbol id="pack" viewBox="0 0 19 12"><g><g><path fill="#f95759" d="M12.24 4.278v7.635c0 .061-.061.102-.102.082L6.53 10.152c-.041-.02-.062-.04-.062-.081V2.436c0-.062.041-.103.102-.082l5.609 1.842c.02.02.04.041.061.082zm5.445-2.497l-4.994 1.637h-.041L7.655 1.781c-.082-.02-.082-.123 0-.143L12.65 0h.04l4.995 1.638c.061.04.061.143 0 .143zm1.187.655v7.627c0 .04-.02.061-.061.081l-5.609 1.84c-.04 0-.102-.02-.102-.081V4.276c0-.04.02-.061.061-.082l5.609-1.84c.04-.02.102.02.102.082zM4.032 3.48H0V2.333h4.032zm0 3.162H0V5.506h4.032zm0 3.203H0V8.7h4.032z"/></g></g></symbol><symbol id="phone" viewBox="0 0 12 12"><g><g><path fill="#fff" d="M.056 3.434a11.193 11.193 0 0 0 8.522 8.522 2.701 2.701 0 0 0 3.113-1.847l.309-.97-3.028-1.507L7.53 9.073a9.085 9.085 0 0 1-2.756-1.847A9.085 9.085 0 0 1 2.957 4.47L4.38 3.028 2.872 0l-.969.309A2.701 2.701 0 0 0 .056 3.434z"/></g></g></symbol><symbol id="pin" viewBox="0 0 9 12"><g><g><path fill="#fff" d="M3.545 3.818c0 .452.365.818.814.818.449 0 .813-.366.813-.818A.816.816 0 0 0 4.359 3a.816.816 0 0 0-.814.818zm-3 0A3.816 3.816 0 0 1 4.36 0a3.816 3.816 0 0 1 3.813 3.818c0 2.826-3.307 5.837-3.448 5.962l-.365.327-.365-.327C3.852 9.655.545 6.644.545 3.818zm8.182 7.637V12H0v-.545z"/></g></g></symbol><symbol id="search" viewBox="0 0 18 18"><g><g><path fill="#2b2d31" d="M7.09 12.51a5.383 5.383 0 0 1-5.38-5.379 5.383 5.383 0 0 1 5.38-5.38 5.383 5.383 0 0 1 5.379 5.38 5.383 5.383 0 0 1-5.38 5.38zm5.606-1.03a7.014 7.014 0 0 0 1.525-4.39C14.22 3.174 11.026 0 7.11 0 3.193.02 0 3.195 0 7.11c0 3.916 3.194 7.09 7.09 7.09a7.187 7.187 0 0 0 4.39-1.525L16.805 18l1.216-1.216z"/></g></g></symbol><symbol id="small-arrow" viewBox="0 0 25 9"><g><g><path fill="#2b2d31" d="M20.55 0L25 4.5 20.55 9l-.763-.77 3.15-3.185H0v-1.09h22.936L19.787.77z"/></g></g></symbol><symbol id="star-fill" viewBox="0 0 306 306">
<g>
	<g id="star-rate" fill="#f95759">
		<polygon points="153,230.775 247.35,299.625 211.65,187.425 306,121.125 191.25,121.125 153,6.375 114.75,121.125 0,121.125 
			94.35,187.425 58.65,299.625 		"/>
	</g>
</g>
<g>
</g>
<g>
</g>
<g>
</g>
<g>
</g>
<g>
</g>
<g>
</g>
<g>
</g>
<g>
</g>
<g>
</g>
<g>
</g>
<g>
</g>
<g>
</g>
<g>
</g>
<g>
</g>
<g>
</g>
</symbol><symbol id="star" viewBox="0 0 21 20"><g><g><path fill="#2b2d31" d="M10.512 14.85l-4.449 2.325.866-4.964-3.583-3.506 4.961-.71 2.205-4.491 2.205 4.491 4.96.71-3.583 3.506.867 4.964zm10.512-7.212L13.74 6.575 10.512 0 7.244 6.575 0 7.638l5.276 5.118L4.016 20l6.496-3.425L17.008 20l-1.22-7.244z"/></g></g></symbol><symbol id="truck" viewBox="0 0 24 17"><g><g><path fill="#2b2d31" d="M4.244 9.43a.517.517 0 0 1-.462-.763L5.218 5.97a.522.522 0 0 1 .47-.288h2.862a.536.536 0 0 1 .396.164.518.518 0 0 1 .133.456c-.02.26-.015 1.49 0 2.597a.523.523 0 0 1-.522.527H4.253zm.874-1.042h2.904V6.73H6zm16.795-3.736a.52.52 0 0 1-.522.52h-3.156a.52.52 0 0 1-.522-.52.52.52 0 0 1 .522-.519h3.156a.52.52 0 0 1 .522.52zm-2.635 3.635h3.157a.52.52 0 0 1 .522.52.52.52 0 0 1-.522.518h-3.157a.52.52 0 0 1-.521-.519.52.52 0 0 1 .521-.52zm4.2 5.192A.52.52 0 0 1 24 14a.52.52 0 0 1-.522.519h-2.69a2.511 2.511 0 0 1-2.478 2.077 2.511 2.511 0 0 1-2.478-2.077h-7.09a2.56 2.56 0 0 1-2.481 2.097 2.56 2.56 0 0 1-2.481-2.097H.522a.52.52 0 0 1-.522-.52v-5.09a.52.52 0 0 1 .308-.476l1.85-.828 1.925-3.45a.522.522 0 0 1 .456-.26h5.478V.52A.52.52 0 0 1 10.54 0h9.287a.52.52 0 0 1 .522.52.52.52 0 0 1-.522.518h-8.765V13.48h4.776a2.511 2.511 0 0 1 2.479-2.077c1.224 0 2.27.877 2.478 2.077zm-22.435 0H3.78a2.558 2.558 0 0 1 2.48-2.095 2.558 2.558 0 0 1 2.482 2.095h1.275V4.933h-5.17L2.987 8.26a.54.54 0 0 1-.243.22l-1.7.761zm5.218 2.098A1.584 1.584 0 0 0 7.738 14c0-.83-.645-1.52-1.477-1.577A1.584 1.584 0 0 0 4.784 14c0 .83.645 1.519 1.477 1.577zM19.8 13.998c0-.648-.399-1.23-1.005-1.47a1.594 1.594 0 0 0-1.743.39 1.575 1.575 0 0 0-.277 1.756 1.59 1.59 0 0 0 1.538.903 1.537 1.537 0 0 0 1.487-1.579z"/></g></g></symbol><symbol id="twitter" viewBox="0 0 16 13"><g><g><path fill="#2b2d31" d="M16 1.54a6.531 6.531 0 0 1-1.885.516A3.288 3.288 0 0 0 15.558.24a6.57 6.57 0 0 1-2.085.797A3.283 3.283 0 0 0 7.88 4.03 9.32 9.32 0 0 1 1.114.6 3.28 3.28 0 0 0 2.13 4.984a3.273 3.273 0 0 1-1.487-.411v.041a3.285 3.285 0 0 0 2.633 3.219 3.3 3.3 0 0 1-1.483.056 3.286 3.286 0 0 0 3.067 2.28A6.585 6.585 0 0 1 0 11.527a9.29 9.29 0 0 0 5.032 1.475c6.038 0 9.34-5.002 9.34-9.34 0-.142-.003-.284-.01-.425A6.648 6.648 0 0 0 16 1.539z"/></g></g></symbol><symbol id="user" viewBox="0 0 10 12"><g><g><path fill="#fff" d="M2.5 2.571C2.5 1.151 3.62 0 5 0s2.5 1.151 2.5 2.571c0 1.42-1.12 2.572-2.5 2.572S2.5 3.992 2.5 2.57zM0 9.583a6.96 6.96 0 0 1 10 0V12H0z"/></g></g></symbol><symbol id="vk" viewBox="0 0 16 9"><g><g><path fill="#2b2d31" d="M15.372.387h-2.596a.589.589 0 0 0-.517.3s-1.035 1.848-1.368 2.47c-.895 1.675-1.474 1.15-1.474.372V.85a.858.858 0 0 0-.871-.845H6.593a1.583 1.583 0 0 0-1.381.622s.991-.156.991 1.139c0 .321.017 1.245.033 2.02a.558.558 0 0 1-.364.532.588.588 0 0 1-.64-.147A16.33 16.33 0 0 1 3.26.695a.548.548 0 0 0-.497-.308H.403a.405.405 0 0 0-.33.165.379.379 0 0 0-.048.358C.741 2.815 3.827 8.8 7.35 8.8H8.83a.577.577 0 0 0 .586-.568v-.867c0-.223.136-.424.347-.512a.59.59 0 0 1 .622.105l1.775 1.616c.159.145.37.226.588.226h2.33c1.124 0 1.124-.756.511-1.34-.431-.412-1.987-2.002-1.987-2.002a.761.761 0 0 1-.062-1.012 739.44 739.44 0 0 0 1.675-2.142c.476-.615 1.34-1.917.156-1.917z"/></g></g></symbol><symbol id="youtube" viewBox="0 0 16 12"><g><g><path fill="#2b2d31" d="M6.348 7.692V3.207l4.323 2.25zm9.492-5.264s-.156-1.103-.636-1.589c-.608-.637-1.29-.64-1.603-.677C11.362 0 8.004 0 8.004 0h-.008S4.638 0 2.4.162c-.313.037-.995.04-1.603.677C.316 1.325.16 2.428.16 2.428S0 3.722 0 5.018V6.23c0 1.295.16 2.59.16 2.59s.156 1.102.636 1.588c.608.637 1.408.617 1.764.684 1.28.122 5.44.16 5.44.16s3.362-.005 5.601-.166c.313-.038.995-.04 1.603-.678.48-.486.636-1.588.636-1.588S16 7.526 16 6.23V5.017c0-1.295-.16-2.59-.16-2.59z"/></g></g></symbol></svg>